<?xml version="1.0" encoding="UTF-8" standalone="no"?>
<!-- Created with Inkscape (http://www.inkscape.org/) -->

<svg
   xmlns:dc="http://purl.org/dc/elements/1.1/"
   xmlns:cc="http://creativecommons.org/ns#"
   xmlns:rdf="http://www.w3.org/1999/02/22-rdf-syntax-ns#"
   xmlns:svg="http://www.w3.org/2000/svg"
   xmlns="http://www.w3.org/2000/svg"
   xmlns:xlink="http://www.w3.org/1999/xlink"
   xmlns:sodipodi="http://sodipodi.sourceforge.net/DTD/sodipodi-0.dtd"
   xmlns:inkscape="http://www.inkscape.org/namespaces/inkscape"
   width="300"
   height="300"
   id="svg3005"
   version="1.1"
   inkscape:version="0.91 r"
   sodipodi:docname="flower_20a.svg">
  <title
     id="title5222">Flower</title>
  <defs
     id="defs3007">
    <linearGradient
       inkscape:collect="always"
       id="linearGradient4617">
      <stop
         style="stop-color:#e52e2e;stop-opacity:1"
         offset="0"
         id="stop4619" />
      <stop
         style="stop-color:#933939;stop-opacity:1"
         offset="1"
         id="stop4621" />
    </linearGradient>
    <linearGradient
       inkscape:collect="always"
       id="linearGradient4601">
      <stop
         style="stop-color:#d52f23;stop-opacity:1"
         offset="0"
         id="stop4603" />
      <stop
         style="stop-color:#666666;stop-opacity:1"
         offset="1"
         id="stop4605" />
    </linearGradient>
    <filter
       inkscape:collect="always"
       style="color-interpolation-filters:sRGB"
       id="filter4214"
       x="-0.055493649"
       width="1.1109873"
       y="-0.026641464"
       height="1.0532829">
      <feGaussianBlur
         inkscape:collect="always"
         stdDeviation="0.26031903"
         id="feGaussianBlur4216" />
    </filter>
    <filter
       inkscape:collect="always"
       style="color-interpolation-filters:sRGB"
       id="filter4226"
       x="-0.028851871"
       width="1.0577037"
       y="-0.047856604"
       height="1.0957132">
      <feGaussianBlur
         inkscape:collect="always"
         stdDeviation="0.26654735"
         id="feGaussianBlur4228" />
    </filter>
    <filter
       inkscape:collect="always"
       style="color-interpolation-filters:sRGB"
       id="filter4242"
       x="-0.024685306"
       width="1.0493706"
       y="-0.023351717"
       height="1.0467034">
      <feGaussianBlur
         inkscape:collect="always"
         stdDeviation="0.32542616"
         id="feGaussianBlur4244" />
    </filter>
    <filter
       inkscape:collect="always"
       style="color-interpolation-filters:sRGB"
       id="filter4258"
       x="-0.024618761"
       width="1.0492375"
       y="-0.02341158"
       height="1.0468232">
      <feGaussianBlur
         inkscape:collect="always"
         stdDeviation="0.27909787"
         id="feGaussianBlur4260" />
    </filter>
    <linearGradient
       inkscape:collect="always"
       xlink:href="#linearGradient4601"
       id="linearGradient4607"
       x1="90.095894"
       y1="831.84985"
       x2="90.618111"
       y2="827.23236"
       gradientUnits="userSpaceOnUse" />
    <linearGradient
       inkscape:collect="always"
       xlink:href="#linearGradient4617"
       id="linearGradient4623"
       x1="89.027885"
       y1="838.65039"
       x2="91.152855"
       y2="822.49066"
       gradientUnits="userSpaceOnUse" />
    <filter
       inkscape:collect="always"
       style="color-interpolation-filters:sRGB"
       id="filter4962"
       x="-0.084504897"
       width="1.1690098"
       y="-0.0064585701"
       height="1.0129171">
      <feGaussianBlur
         inkscape:collect="always"
         stdDeviation="0.32558187"
         id="feGaussianBlur4964" />
    </filter>
    <filter
       inkscape:collect="always"
       style="color-interpolation-filters:sRGB"
       id="filter4970"
       x="-0.0083543124"
       width="1.0167086"
       y="-0.021291089"
       height="1.0425822">
      <feGaussianBlur
         inkscape:collect="always"
         stdDeviation="0.089599248"
         id="feGaussianBlur4972" />
    </filter>
    <filter
       inkscape:collect="always"
       style="color-interpolation-filters:sRGB"
       id="filter5210"
       x="-0.055838146"
       width="1.1116763"
       y="-0.06483222"
       height="1.1296644">
      <feGaussianBlur
         inkscape:collect="always"
         stdDeviation="0.65675287"
         id="feGaussianBlur5212" />
    </filter>
    <filter
       inkscape:collect="always"
       style="color-interpolation-filters:sRGB"
       id="filter5218"
       x="-0.023711518"
       width="1.047423"
       y="-0.024295588"
       height="1.0485912">
      <feGaussianBlur
         inkscape:collect="always"
         stdDeviation="0.12833329"
         id="feGaussianBlur5220" />
    </filter>
  </defs>
  <sodipodi:namedview
     id="base"
     pagecolor="#ffffff"
     bordercolor="#666666"
     borderopacity="1.0"
     inkscape:pageopacity="0.0"
     inkscape:pageshadow="2"
     inkscape:zoom="2.1033333"
     inkscape:cx="150"
     inkscape:cy="150"
     inkscape:document-units="px"
     inkscape:current-layer="layer1"
     showgrid="false"
     inkscape:window-width="1215"
     inkscape:window-height="776"
     inkscape:window-x="65"
     inkscape:window-y="24"
     inkscape:window-maximized="1"
     inkscape:snap-global="false" />
  <metadata
     id="metadata3010">
    <rdf:RDF>
      <cc:Work
         rdf:about="">
        <dc:format>image/svg+xml</dc:format>
        <dc:type
           rdf:resource="http://purl.org/dc/dcmitype/StillImage" />
        <dc:title>Flower</dc:title>
        <dc:date>Setembro 2015</dc:date>
        <dc:creator>
          <cc:Agent>
            <dc:title>jpenrici</dc:title>
          </cc:Agent>
        </dc:creator>
        <dc:publisher>
          <cc:Agent>
            <dc:title>Open Clip Art Library</dc:title>
          </cc:Agent>
        </dc:publisher>
        <cc:license
           rdf:resource="http://creativecommons.org/publicdomain/zero/1.0/" />
        <dc:subject>
          <rdf:Bag>
            <rdf:li>plant</rdf:li>
            <rdf:li>flora</rdf:li>
            <rdf:li>nature</rdf:li>
            <rdf:li>clip art</rdf:li>
            <rdf:li>clipart</rdf:li>
            <rdf:li>svg</rdf:li>
          </rdf:Bag>
        </dc:subject>
      </cc:Work>
      <cc:License
         rdf:about="http://creativecommons.org/publicdomain/zero/1.0/">
        <cc:permits
           rdf:resource="http://creativecommons.org/ns#Reproduction" />
        <cc:permits
           rdf:resource="http://creativecommons.org/ns#Distribution" />
        <cc:permits
           rdf:resource="http://creativecommons.org/ns#DerivativeWorks" />
      </cc:License>
    </rdf:RDF>
  </metadata>
  <g
     inkscape:label="Camada 1"
     inkscape:groupmode="layer"
     id="layer1"
     transform="translate(0,-752.36218)">
    <g
       id="g5831"
       transform="matrix(1,0,0,0.98874308,2.455803,11.765239)">
      <path
         inkscape:connector-curvature="0"
         id="path5245"
         d="m 156.26591,755.59395 c -7.74411,-0.29637 -24.24764,10.38844 -29.90165,23.41789 -14.40892,-5.19138 -34.794252,-1.49212 -38.732953,4.14433 -0.625402,6.52909 -0.0462,17.9952 4.420634,27.13702 -0.254686,0.21486 -0.507038,0.43481 -0.757703,0.65839 -13.132847,-17.98717 -26.533317,-29.92047 -37.787824,-32.73333 0.427652,-0.0168 15.543677,20.62329 30.603532,41.19833 -6.030229,9.32309 -9.085644,21.56471 -6.233166,33.31139 4.638845,-6.72962 17.89315,2.13514 31.14988,0.96798 0.92091,13.75188 11.99803,28.90822 18.74335,30.13308 0.29743,-0.0985 0.65706,-0.23431 0.97307,-0.34291 1.1159,3.06284 2.1976,6.1606 3.2402,9.29192 l -0.2592,29.86658 C 116.24041,866.81447 95.308701,857.07903 61.117418,864.3262 c 33.317135,2.50657 54.004362,15.53399 70.433182,78.34444 l -0.018,2.14172 2.65198,37.09516 c -1.013,5.48715 0.0822,14.56847 -2.14949,16.68116 1.73647,7.55332 -3.41082,1.85142 2.50442,21.05862 -8.13541,-7.9262 -4.47563,-17.2576 -6.34683,-25.92991 l -2.39476,-4.0013 -5.15841,-29.83719 -0.48254,-12.33305 c 0.22446,-1.24242 0.40999,-2.43302 0.48254,-3.4487 0.23808,-3.33279 0.0323,-6.77976 -0.94515,-9.9797 -1.73121,-5.66769 -8.50828,-15.66027 -8.50828,-15.66027 l 0.0199,0.18616 -0.014,-0.0765 -4.72372,-18.10376 -1.88829,11.14168 c 0,0 -1.40155,11.1311 -1.18244,16.71055 0.18722,4.76672 0.92289,9.5358 2.12559,14.15734 1.51815,5.83371 6.37672,16.94177 6.37672,16.94177 l 0.11964,0.0333 c 0.19206,20.95261 2.69812,42.73238 8.1115,61.60838 -0.49598,-0.1096 -0.88743,0.4421 -0.98104,2.4944 -0.16268,0.851 -0.1526,1.8136 0.1615,2.6375 -0.16915,-0.065 -0.33436,-0.1303 -0.50447,-0.1959 0.0183,1.0417 -0.53486,2.3863 -1.24822,3.7073 -13.70009,-1.2053 -26.269516,-1.912 -36.525639,-0.5682 -5.06281,0.9369 -12.051617,4.2505 -9.285937,8.2847 11.665619,7.6841 34.703226,2.6808 46.527406,5.3964 6.00776,0.095 13.02302,2.0618 13.86012,6.5644 2.99344,3.6477 10.70307,3.0288 15.10835,0.9777 17.01983,-8.5604 42.67704,-4.6625 57.56605,-10.7634 4.87335,-3.0094 -0.88213,-7.8364 -6.43456,-7.6244 -12.28221,1.8506 -25.27037,1.9478 -38.22051,1.303 -0.21387,-0.126 -0.46053,-0.218 -0.74374,-0.2605 -2.70138,-1.7165 -3.99363,-4.7497 -6.15541,-6.97 -0.277,-0.2643 -0.58135,-0.4603 -0.89728,-0.625 0.0558,-0.096 0.1058,-0.1939 0.14157,-0.2979 39.35854,-114.41002 58.26344,-90.77416 78.02024,-89.14319 -43.11598,-21.63389 -51.84039,3.22167 -75.51581,71.86639 13.29926,-44.26699 22.59603,-92.73306 62.21201,-89.88589 -21.48543,-7.9919 -33.63429,-4.24049 -42.13269,9.4036 -8.89286,25.41675 -15.93758,50.49146 -20.18102,68.53521 -0.90155,4.14528 -1.73226,8.00428 -2.71578,12.42508 0.70274,-3.5815 1.62739,-7.7971 2.71578,-12.42508 6.79848,-31.25913 11.74245,-54.98716 20.18102,-68.53521 17.49241,-49.99515 42.09697,-101.11285 66.49906,-101.66436 -14.79981,-3.96022 -30.31429,4.88043 -44.2124,21.35847 -0.80014,-5.99897 -2.69326,-11.62508 -5.52131,-16.18345 0.78892,-0.65109 1.51292,-1.36568 2.1156,-2.177 0.60693,-0.81702 0.74239,-1.86467 0.97704,-2.87066 1.07089,-1.34777 2.08279,-2.74046 3.01888,-4.1502 0.96179,-0.88393 1.79364,-1.79175 1.84244,-2.93728 2.22068,-3.71467 3.96154,-7.30918 5.1644,-10.0326 -0.69216,-6.8902 -15.75806,-19.28076 -29.82588,-20.6315 0.33161,-12.84588 -11.16179,-26.36566 -17.58286,-32.30224 -0.39645,-0.0982 -0.82867,-0.1547 -1.29211,-0.17243 z m 0,70.54565 c 0.18809,0.20854 0.37505,0.40949 0.5623,0.61137 -0.0184,0.0136 -0.0375,0.0275 -0.0559,0.0411 -0.20221,-0.22553 -0.37481,-0.44438 -0.50646,-0.65251 z m -23.52291,4.91637 c 0.3004,-0.005 0.56745,0.0727 0.81353,0.20379 -0.3075,0.0222 -0.61854,0.0421 -0.91922,0.0686 0.0348,-0.0919 0.0711,-0.17975 0.10569,-0.27237 z m 15.09438,4.97123 c 0.0626,0.008 0.12954,0.0174 0.1974,0.0274 -0.0118,0.0455 -0.0221,0.0899 -0.0339,0.1352 -0.0545,-0.0541 -0.10855,-0.1085 -0.16351,-0.16264 z m 7.99983,29.63146 c 6.90465,4.57826 16.32098,6.16661 23.92171,7.8987 -12.0416,22.47792 -21.37203,50.34203 -25.62058,78.35816 -0.32936,12.76617 -1.21511,26.06494 -2.36884,39.36033 -0.52392,-12.78032 0.35592,-26.08662 2.36884,-39.36033 0.65805,-25.50616 -0.93502,-48.85464 -7.22218,-65.61753 L 146.641,874.75462 c 3.6808,-2.55165 6.98697,-5.57432 9.19621,-9.09596 z m -28.46997,159.70454 2.07971,3.8602 c -0.0862,-0.024 -0.1682,-0.063 -0.25324,-0.092 l -1.82647,-3.7681 z"
         style="fill:#333333;fill-opacity:1;fill-rule:evenodd;stroke:none;stroke-width:0.86761713px;stroke-linecap:butt;stroke-linejoin:miter;stroke-opacity:1" />
      <g
         transform="translate(-19.893154,1.3866174)"
         id="g5077">
        <path
           style="fill:#cccccc;fill-opacity:1;fill-rule:evenodd;stroke:none;stroke-width:0.86761713px;stroke-linecap:butt;stroke-linejoin:miter;stroke-opacity:1"
           d="m 101.01848,1027.2764 c -4.959088,0.9339 -11.80515,4.2369 -9.096133,8.258 11.426633,7.6591 33.992793,2.6725 45.574743,5.3793 5.88467,0.095 12.755,2.0532 13.57495,6.5411 2.93212,3.6359 10.48384,3.0199 14.79887,0.9755 16.67115,-8.5326 41.80336,-4.6473 56.38735,-10.7284 4.77351,-2.9996 -0.86451,-7.8107 -6.30319,-7.5994 -39.43239,6.0461 -86.28967,-6.6457 -114.93659,-2.8261 z"
           id="path4859"
           inkscape:connector-curvature="0"
           sodipodi:nodetypes="cccccccc" />
        <g
           id="g4873"
           transform="matrix(1.2737167,0,0,1.2737167,-323.69858,-237.18613)">
          <g
             transform="translate(210.97753,13.859838)"
             id="g4826">
            <path
               style="fill:#152312;fill-opacity:1;fill-rule:evenodd;stroke:none;stroke-width:0.78510392px;stroke-linecap:butt;stroke-linejoin:miter;stroke-opacity:1"
               d="m 148.05454,846.61998 c -0.63079,-0.0114 -46.0992,-64.12494 -46.75388,-64.09884 29.90276,7.60518 79.5032,100.29582 72.26404,179.87096 -13.23205,-102.86649 -30.10541,-120.31755 -66.41202,-112.48659 34.18079,2.6168 51.07769,19.8808 65.97057,124.75557 0.68746,3.06998 3.80879,2.53602 4.3041,1.07091 30.2675,-89.53187 44.80553,-71.0344 59.9989,-69.75809 -33.15704,-16.92964 -39.86579,2.52021 -58.07266,56.23824 10.2274,-34.64117 17.37687,-72.56846 47.84235,-70.3404 -35.10483,-13.28767 -37.80594,14.8945 -50.00955,70.71466 6.79198,-35.2245 37.99468,-142.20573 68.7475,-142.91301 -33.40177,-9.09512 -71.54659,68.032 -69.06722,129.57696 4.34094,-50.90444 3.90495,-102.04155 -28.81187,-102.63032 z"
               id="path5064"
               inkscape:connector-curvature="0"
               sodipodi:nodetypes="cccccscccccccc"
               inkscape:transform-center-x="0.51579471"
               inkscape:transform-center-y="-120.3009" />
            <path
               style="fill:#68784a;fill-opacity:1;fill-rule:evenodd;stroke:#25290f;stroke-width:0.30000001;stroke-linecap:butt;stroke-linejoin:miter;stroke-miterlimit:4;stroke-dasharray:none;stroke-opacity:1"
               d="m 174.91781,976.3333 -9.24676,-1.28428 -4.36652,-62.15875 0.5137,-60.36077 10.78789,-7.96248 3.08225,131.50942 z"
               id="path4776"
               inkscape:connector-curvature="0" />
            <path
               style="fill:#c1cfab;fill-opacity:1;fill-rule:evenodd;stroke:none;stroke-width:0.30000001;stroke-linecap:butt;stroke-linejoin:miter;stroke-miterlimit:4;stroke-dasharray:none;stroke-opacity:1;filter:url(#filter4962)"
               d="m 171.83555,856.38232 3.08226,120.20783 c 0,0 -6.16451,2.05483 -5.39395,-0.51371 0.77057,-2.56854 -3.85281,-60.61762 -3.85281,-60.61762 l 0.51371,-52.65514 4.36652,13.61328 z"
               id="path4774"
               inkscape:connector-curvature="0" />
            <path
               style="fill:#6c7d35;fill-opacity:1;fill-rule:evenodd;stroke:#282f15;stroke-width:0.30000001;stroke-linecap:butt;stroke-linejoin:miter;stroke-miterlimit:4;stroke-dasharray:none;stroke-opacity:1"
               d="m 159.7634,979.41555 -6.42136,-4.10967 c -4.8454,-15.7809 -7.00387,-34.48641 -7.05796,-52.32072 l 3.462,2.23412 c 1.64179,18.79086 3.76571,36.13531 7.44878,48.80233 z"
               id="path4780"
               inkscape:connector-curvature="0"
               sodipodi:nodetypes="cccccc" />
            <path
               style="fill:#8ba756;fill-opacity:1;fill-rule:evenodd;stroke:#282f15;stroke-width:0.30000001;stroke-linecap:butt;stroke-linejoin:miter;stroke-miterlimit:4;stroke-dasharray:none;stroke-opacity:1"
               d="m 149.40654,926.02182 2.97553,-15.50755 0.54487,14.16663 7.99143,47.04047 -0.90811,7.80981 -3.39752,-6.41556 c -2.72004,-13.97737 -6.28302,-23.68291 -7.2062,-47.0938 z"
               id="path4782"
               inkscape:connector-curvature="0"
               sodipodi:nodetypes="ccccccc" />
            <path
               style="fill:#535f29;fill-opacity:1;fill-rule:evenodd;stroke:#282f15;stroke-width:0.30000001;stroke-linecap:butt;stroke-linejoin:miter;stroke-miterlimit:4;stroke-dasharray:none;stroke-opacity:1"
               d="m 149.4761,925.22577 -3.26923,-0.90812 c 0,0 -3.73634,-8.69332 -4.90383,-13.25851 -0.9249,-3.6166 -1.49064,-7.34882 -1.63461,-11.07903 -0.16851,-4.36621 0.90812,-13.07689 0.90812,-13.07689 l 1.45298,-8.71792 3.63247,14.16662 3.8141,19.79696 z"
               id="path4784"
               inkscape:connector-curvature="0"
               sodipodi:nodetypes="ccaaccccc" />
            <path
               style="fill:#8ba04f;fill-opacity:1;fill-rule:evenodd;stroke:#282f15;stroke-width:0.30000001;stroke-linecap:butt;stroke-linejoin:miter;stroke-miterlimit:4;stroke-dasharray:none;stroke-opacity:1"
               d="m 145.65659,892.26613 c 0,0 5.21252,7.8193 6.54386,12.25457 0.75167,2.50412 0.90958,5.20171 0.72649,7.8098 -0.34897,4.97105 -3.45084,14.54612 -3.45084,14.54612 z"
               id="path4786"
               inkscape:connector-curvature="0"
               sodipodi:nodetypes="caacc" />
            <path
               style="fill:#152312;fill-opacity:1;fill-rule:evenodd;stroke:#68784a;stroke-width:0.30000001;stroke-linecap:butt;stroke-linejoin:miter;stroke-miterlimit:4;stroke-dasharray:none;stroke-opacity:1"
               d="m 163.87307,979.6724 c 0.89837,-1.82451 2.16339,-1.80163 5.97513,-2.72972 l -6.27127,-36.06131 c -1.17869,4.07326 -0.0245,12.29754 -1.88693,14.09169 1.33538,5.91079 -2.62273,1.44939 1.92621,16.48 -6.2563,-6.20267 -3.44124,-13.5049 -4.88023,-20.29149 l -2.56854,-4.36652 c 1.28427,9.07552 -0.58354,16.575 3.85281,27.22656 l -0.0282,5.01925 z"
               id="path4778"
               inkscape:connector-curvature="0"
               sodipodi:nodetypes="cccccccccc" />
          </g>
          <g
             transform="translate(210.97753,13.859838)"
             id="g4822">
            <path
               style="fill:#433b30;fill-opacity:1;fill-rule:evenodd;stroke:#433b30;stroke-width:0.30000001;stroke-linecap:butt;stroke-linejoin:round;stroke-miterlimit:4;stroke-dasharray:none;stroke-opacity:1"
               d="m 151.51859,976.41856 c 0.03,1.74381 -1.92693,4.56919 -2.87802,5.98921 1.00133,5.41697 28.66345,3.21034 34.21063,2.70909 1.67592,-0.40214 1.59664,-2.94753 -0.10879,-3.20831 -2.07741,-1.3432 -3.0708,-3.71706 -4.73325,-5.45462 -1.21316,-1.17809 -2.97841,-1.01491 -4.53977,-0.39379 -1.56399,0.6649 -3.31223,1.96213 -5.05503,2.03009 -7.00116,2.5468 -11.63523,0.39347 -16.89577,-1.67167 z"
               id="path4809"
               inkscape:connector-curvature="0"
               sodipodi:nodetypes="cccccccc" />
            <path
               style="fill:#876653;fill-opacity:1;fill-rule:evenodd;stroke:#433b30;stroke-width:0.30000001;stroke-linecap:butt;stroke-linejoin:round;stroke-miterlimit:4;stroke-dasharray:none;stroke-opacity:1;filter:url(#filter4970)"
               d="m 158.48026,978.34172 c -1.56642,-1.2219 -2.62726,-2.97653 -4.26888,-4.11702 -0.78542,-0.72515 -2.25783,-3.55814 -2.42996,0.28254 -0.20953,1.1153 -0.0596,2.48069 0.96834,3.15894 9.17829,8.11944 10.28568,3.94232 17.30781,3.55289 5.48003,-0.66709 6.52506,-1.60548 6.48114,-7.2069 2.12848,-1.51873 -6.1e-4,-1.66515 -1.40174,0.47718 -2.33232,1.90839 -4.55861,1.49161 -6.81019,2.62387 -1.45909,0.48937 -3.05368,0.59168 -4.40415,1.37997 -1.79204,0.61014 -3.88145,1.05644 -5.44237,-0.15147 z"
               id="path4807"
               inkscape:connector-curvature="0"
               sodipodi:nodetypes="cccccccccc" />
          </g>
          <g
             transform="matrix(1.1775763,0.10684852,-0.10684852,1.1775763,363.52227,-153.89411)"
             id="g4700">
            <g
               id="g4651">
              <g
                 transform="matrix(0.36644971,0.93043786,-0.93043786,0.36644971,788.70911,371.87578)"
                 id="g4287"
                 inkscape:transform-center-x="15.617934"
                 inkscape:transform-center-y="2.9048521">
                <path
                   sodipodi:nodetypes="ccc"
                   inkscape:connector-curvature="0"
                   id="path4289"
                   d="m 170.78666,824.27332 c -36.54807,1.51586 -19.27717,38.02795 5.11377,39.25951 -5.78682,-7.00149 21.1583,-21.06792 -5.11377,-39.25951 z"
                   style="fill:#ffffff;fill-opacity:1;fill-rule:evenodd;stroke:#aa281f;stroke-width:0.30000001;stroke-linecap:butt;stroke-linejoin:round;stroke-miterlimit:4;stroke-dasharray:none;stroke-opacity:1" />
                <path
                   sodipodi:nodetypes="ssaaaaaaassaaaaasssaaaaaassaaaaaaaaa"
                   inkscape:connector-curvature="0"
                   id="path4291"
                   d="m 168.36719,825.03796 c -2.58845,0.13891 -5.21818,2.50673 -7.67774,1.46289 -1.53875,-0.65305 -3.17957,1.23384 -4.43919,2.33275 -1.48438,1.295 -2.46281,3.09579 -3.43322,4.81006 -0.91912,1.62368 -2.14264,3.26915 -2.23269,5.13275 -0.11634,2.40767 1.471,4.59116 2.23173,6.87844 0.42377,1.27417 0.64808,2.63878 1.29937,3.81305 1.22272,2.20456 3.04527,4.03167 4.78104,5.85984 0.79348,0.83572 1.52595,1.81658 2.56188,2.32144 0.93898,0.45761 2.3502,1.27183 3.0881,0.53249 0.90487,-0.90664 2.62579,1.14539 6.35795,1.39611 1.62546,0.1092 3.07025,-1.51059 3.94508,-2.8849 0.75573,-1.18721 0.16337,-2.89534 0.81537,-4.14253 1.11963,-2.1417 3.87417,-3.09394 5.04216,-5.20965 1.02306,-1.85318 1.4791,-4.05216 1.50815,-6.16878 0.0262,-1.90512 -0.16059,-3.9937 -1.20455,-5.58754 -1.11595,-1.70374 -3.05806,-4.20429 -4.96089,-3.56686 -2.22717,0.74609 -2.20654,-3.7248 -4.01615,-5.36079 -0.991,-0.89592 -2.33237,-1.69036 -3.6664,-1.61877 z m -0.19922,1.72266 c 1.47015,0.20067 2.76455,1.14333 3.97846,1.99658 2.6261,1.84586 5.3478,3.8708 6.97867,6.63556 0.9339,1.5832 1.373,3.49763 1.39252,5.33565 0.0209,1.97106 -0.60906,3.93452 -1.37145,5.75228 -0.48392,1.15381 -1.32935,2.12007 -1.9945,3.1798 -1.27301,2.02818 -2.12998,6.04581 -3.82088,6.08338 -2.97092,0.066 -3.55233,2.07364 -4.77464,3.21671 -1.28987,1.20624 -3.91644,-1.29736 -5.69462,-2.31575 -1.53056,-0.87657 -2.987,-1.9382 -4.19955,-3.2191 -1.34412,-1.41988 -2.33003,-3.15069 -3.30802,-4.84369 -1.07763,-1.86547 -2.29456,-3.73027 -2.80238,-5.82392 -0.57031,-2.35127 -0.95279,-4.95655 -0.1991,-7.25561 0.63008,-1.92199 2.19941,-3.46202 3.72514,-4.78987 1.10684,-0.96328 2.44632,-1.66681 3.81453,-2.19691 1.74115,-0.67459 3.64269,-0.82397 5.47076,-1.20457 0.93286,-0.19422 1.86096,-0.67941 2.80506,-0.55054 z"
                   style="fill:#f12121;fill-opacity:1;fill-rule:evenodd;stroke:none;stroke-width:0.30000001;stroke-linecap:butt;stroke-linejoin:round;stroke-miterlimit:4;stroke-dasharray:none;stroke-opacity:1;filter:url(#filter4242)" />
                <path
                   sodipodi:nodetypes="caaaaaaaaaaaaaaaaaaaaaac"
                   inkscape:connector-curvature="0"
                   id="path4293"
                   d="m 165.66355,828.06135 c -1.34566,2.10797 -4.3179,1.30764 -6.38192,2.20518 -1.38949,0.60422 -3.42388,0.73507 -4.01563,2.12992 -0.19972,0.47076 0.46876,0.9646 0.42493,1.47409 -0.12365,1.43725 -1.37295,2.54632 -1.89135,3.89251 -0.45758,1.18826 -1.15013,2.3976 -1.0662,3.66815 0.0955,1.44527 0.77263,2.90887 1.75114,3.97678 0.98607,1.07616 2.83418,1.04811 3.83834,2.10741 0.90831,0.95819 0.96861,2.4819 1.7181,3.56883 0.64732,0.93876 1.6214,1.60843 2.35347,2.48272 0.77972,0.9312 0.99495,2.59878 2.16281,2.93226 1.33658,0.38166 2.58436,-1.0245 3.8741,-1.54284 1.1637,-0.46768 2.50882,-0.62869 3.48666,-1.41403 1.13592,-0.91232 1.62229,-2.42131 2.47792,-3.60053 0.63375,-0.87343 1.26271,-1.75358 1.96596,-2.57209 1.01101,-1.17671 2.63267,-1.91916 3.22984,-3.351 0.51459,-1.23385 0.36808,-2.70117 0.0933,-4.00949 -0.28879,-1.37505 -0.94146,-2.69489 -1.78506,-3.8185 -0.8632,-1.14971 -2.24573,-1.80805 -3.2424,-2.8442 -0.77375,-0.8044 -1.33704,-1.79459 -2.10866,-2.60104 -0.8759,-0.91545 -1.66775,-2.05094 -2.84406,-2.52161 -1.28482,-0.51409 -2.76778,-0.0619 -4.1489,-0.14883 -0.07,-0.004 -0.13956,-0.0166 -0.2097,-0.0189 -0.0703,-0.002 -0.21096,0.005 -0.21096,0.005"
                   style="fill:#ffffff;fill-opacity:1;fill-rule:evenodd;stroke:none;stroke-width:0.30000001;stroke-linecap:butt;stroke-linejoin:miter;stroke-miterlimit:4;stroke-dasharray:none;stroke-opacity:1;filter:url(#filter4258)" />
                <g
                   style="fill:#ff0000;fill-opacity:1;filter:url(#filter4226)"
                   id="g4295">
                  <path
                     inkscape:connector-curvature="0"
                     id="path4297"
                     d="m 160.00669,834.54962 c -0.82545,1.1852 -4.28057,-0.20932 -4.15488,1.22953 0.0685,0.78473 2.13491,-0.49084 2.34794,0.26751 0.39144,1.39206 -4.08813,1.37926 -3.42399,2.66377 0.43171,0.83498 2.13248,-1.56463 2.6996,-0.81501 1.00323,1.32604 -3.87696,3.04295 -2.68609,4.20343 0.70101,0.6831 1.59794,-2.15583 2.43261,-1.6446 1.43755,0.88049 -2.2437,4.56797 -0.61945,5.01925 1.38164,0.38386 1.25431,-2.58425 1.75108,-3.92942 0.35138,-0.95148 1.65374,-2.27938 0.86515,-2.91727 -0.39214,-0.3172 -1.02053,1.1231 -1.32876,0.72387 -0.853,-1.10486 3.58629,-1.85327 2.86869,-3.05051 -0.36938,-0.61628 -1.62553,1.11783 -2.08093,0.56208 -0.62036,-0.75708 0.34826,-2.82114 1.30799,-2.62896 0.1036,0.0207 0.0814,0.22961 0.0211,0.31632 z"
                     style="fill:#ff0000;fill-opacity:1;fill-rule:evenodd;stroke:none;stroke-width:0.30000001;stroke-linecap:butt;stroke-linejoin:round;stroke-miterlimit:4;stroke-dasharray:none;stroke-opacity:1"
                     inkscape:transform-center-x="1.8376796"
                     inkscape:transform-center-y="6.5078165"
                     sodipodi:nodetypes="aaaaaaaaaaaaaaa" />
                  <path
                     style="fill:#ff0000;fill-opacity:1;fill-rule:evenodd;stroke:none;stroke-width:0.30000001;stroke-linecap:butt;stroke-linejoin:round;stroke-miterlimit:4;stroke-dasharray:none;stroke-opacity:1"
                     d="m 171.83532,836.39216 c 0.71873,1.25281 4.28249,0.1655 4.03156,1.58787 -0.13683,0.77573 -2.08386,-0.67549 -2.36234,0.0613 -0.51121,1.35266 3.95199,1.73118 3.17816,2.95274 -0.50302,0.79407 -1.98761,-1.74497 -2.61807,-1.04777 -1.11526,1.23332 3.59629,3.37005 2.30857,4.42204 -0.75799,0.61924 -1.40347,-2.28719 -2.27962,-1.85084 -1.50898,0.75153 1.83602,4.74652 0.17855,5.05417 -1.4099,0.2617 -1.02373,-2.68395 -1.40107,-4.06739 -0.2669,-0.97854 -1.44827,-2.41515 -0.60696,-2.9817 0.41836,-0.28173 0.91851,1.20798 1.26044,0.83719 0.94627,-1.02611 -3.41064,-2.15951 -2.5912,-3.28948 0.42181,-0.58165 1.52167,1.25556 2.02388,0.74172 0.68413,-0.7 -0.10046,-2.84078 -1.07331,-2.73318 -0.10505,0.0116 -0.10113,0.22163 -0.0486,0.31329 z"
                     id="path4299"
                     inkscape:connector-curvature="0"
                     inkscape:transform-center-x="-1.9291653"
                     inkscape:transform-center-y="5.2673608"
                     sodipodi:nodetypes="aaaaaaaaaaaaaaa" />
                </g>
                <path
                   sodipodi:nodetypes="aaaaaaaaaaaaaaaaaaaaaaaaa"
                   inkscape:connector-curvature="0"
                   id="path4301"
                   d="m 168.1407,829.3721 c -1.43895,-0.39776 -3.01905,0.60267 -4.22729,1.47956 -1.36284,0.98909 -4.24695,2.81672 -3.06479,4.01593 0.83096,0.84295 1.92643,-2.84969 2.85342,-2.11365 0.90202,0.71621 -0.91963,2.11204 -1.37387,3.17047 -0.60382,1.40698 -3.04003,3.33394 -1.7966,4.2273 1.0335,0.74253 1.76492,-3.19564 2.85343,-2.53638 1.11813,0.6772 -0.71111,2.51957 -0.95114,3.80456 -0.26075,1.39592 -1.87182,3.76702 -0.52842,4.2273 1.24024,0.42493 0.73986,-3.7145 2.00797,-3.38184 1.49967,0.3934 -0.10522,3.11403 0.10568,4.65003 0.31595,2.3011 -0.57609,7.06637 1.72511,6.75115 2.09046,-0.28636 -2.20725,-5.90654 -0.13987,-6.32842 0.7435,-0.15172 0.0983,2.24617 0.84545,2.11364 1.17984,-0.20927 -0.93461,-2.99857 0.10569,-3.5932 0.69809,-0.39902 1.47512,1.65123 2.11364,1.16251 1.06522,-0.81531 -2.02297,-3.10365 -0.95114,-3.91025 0.6808,-0.51233 1.57327,1.82369 2.21933,1.26819 1.25996,-1.08335 -2.85908,-3.37241 -1.7966,-4.65002 0.36667,-0.44092 1.32206,0.75613 1.69092,0.31704 1.16157,-1.38276 -3.27984,-3.90502 -1.90228,-5.07275 0.80661,-0.68374 1.93175,2.25776 2.74774,1.58524 0.91987,-0.75813 -1.85497,-2.41157 -1.16251,-3.38184 0.34789,-0.48746 1.54259,0.54233 1.7966,0 0.7002,-1.49496 -1.57933,-3.36474 -3.17047,-3.80457 z"
                   style="fill:#ff0000;fill-opacity:1;fill-rule:evenodd;stroke:none;stroke-width:0.30000001;stroke-linecap:butt;stroke-linejoin:round;stroke-miterlimit:4;stroke-dasharray:none;stroke-opacity:1;filter:url(#filter4214)" />
              </g>
              <g
                 transform="matrix(0.96921842,0.24620246,0.24620246,-0.96921842,-275.80495,1577.9904)"
                 id="g4351"
                 inkscape:transform-center-x="-1.1901327"
                 inkscape:transform-center-y="-16.030701">
                <path
                   sodipodi:nodetypes="ccc"
                   inkscape:connector-curvature="0"
                   id="path4353"
                   d="m 170.78666,824.27332 c -36.54807,1.51586 -15.00105,36.5058 -6.5283,37.28948 9.13893,-4.03376 32.80037,-19.09789 6.5283,-37.28948 z"
                   style="fill:#ffffff;fill-opacity:1;fill-rule:evenodd;stroke:#aa281f;stroke-width:0.30000001;stroke-linecap:butt;stroke-linejoin:round;stroke-miterlimit:4;stroke-dasharray:none;stroke-opacity:1" />
                <path
                   sodipodi:nodetypes="ssaaaaaaassaaaaasssaaaaaassaaaaaaaaa"
                   inkscape:connector-curvature="0"
                   id="path4355"
                   d="m 168.36719,825.03796 c -2.58845,0.13891 -5.21818,2.50673 -7.67774,1.46289 -1.53875,-0.65305 -3.17957,1.23384 -4.43919,2.33275 -1.48438,1.295 -2.46281,3.09579 -3.43322,4.81006 -0.91912,1.62368 -2.14264,3.26915 -2.23269,5.13275 -0.11634,2.40767 1.471,4.59116 2.23173,6.87844 0.42377,1.27417 0.64808,2.63878 1.29937,3.81305 1.22272,2.20456 3.04527,4.03167 4.78104,5.85984 0.79348,0.83572 1.71581,1.53901 2.56188,2.32144 0.91954,0.85038 1.99472,3.31832 2.73262,2.57898 0.90487,-0.90664 2.41578,-2.89148 6.14794,-2.64076 1.62546,0.1092 2.34143,-3.27677 3.98927,-4.35299 0.82972,-0.5419 2.01757,-0.36894 2.81438,-0.95817 1.63169,-1.20661 2.71363,-3.09314 3.56445,-4.93554 0.88749,-1.9218 1.4791,-4.05216 1.50815,-6.16878 0.0262,-1.90512 -0.16059,-3.9937 -1.20455,-5.58754 -1.11595,-1.70374 -3.05806,-4.20429 -4.96089,-3.56686 -2.22717,0.74609 -2.20654,-3.7248 -4.01615,-5.36079 -0.991,-0.89592 -2.33237,-1.69036 -3.6664,-1.61877 z m -0.19922,1.72266 c 1.47015,0.20067 2.76455,1.14333 3.97846,1.99658 2.6261,1.84586 5.3478,3.8708 6.97867,6.63556 0.9339,1.5832 1.373,3.49763 1.39252,5.33565 0.0209,1.97106 -0.60906,3.93452 -1.37145,5.75228 -0.48392,1.15381 -1.10252,2.3024 -1.9945,3.1798 -1.20575,1.18604 -2.65128,2.58734 -4.34218,2.62491 -2.97092,0.066 -4.13569,3.07603 -5.358,4.2191 -1.28987,1.20624 -2.43268,1.43697 -3.70524,1.18691 -2.17072,-0.42656 -3.5992,-2.626 -5.08427,-4.26568 -1.31251,-1.44915 -2.33003,-3.15069 -3.30802,-4.84369 -1.07763,-1.86547 -2.29456,-3.73027 -2.80238,-5.82392 -0.57031,-2.35127 -0.95279,-4.95655 -0.1991,-7.25561 0.63008,-1.92199 2.19941,-3.46202 3.72514,-4.78987 1.10684,-0.96328 2.44632,-1.66681 3.81453,-2.19691 1.74115,-0.67459 3.64269,-0.82397 5.47076,-1.20457 0.93286,-0.19422 1.86096,-0.67941 2.80506,-0.55054 z"
                   style="fill:#f12121;fill-opacity:1;fill-rule:evenodd;stroke:none;stroke-width:0.30000001;stroke-linecap:butt;stroke-linejoin:round;stroke-miterlimit:4;stroke-dasharray:none;stroke-opacity:1;filter:url(#filter4242)" />
                <path
                   sodipodi:nodetypes="caaaaaaaaaaaaaaaaaaaaaac"
                   inkscape:connector-curvature="0"
                   id="path4357"
                   d="m 165.66355,828.06135 c -1.34566,2.10797 -4.3179,1.30764 -6.38192,2.20518 -1.38949,0.60422 -3.42388,0.73507 -4.01563,2.12992 -0.19972,0.47076 0.46876,0.9646 0.42493,1.47409 -0.12365,1.43725 -1.37295,2.54632 -1.89135,3.89251 -0.45758,1.18826 -1.15013,2.3976 -1.0662,3.66815 0.0955,1.44527 0.77263,2.90887 1.75114,3.97678 0.98607,1.07616 2.83418,1.04811 3.83834,2.10741 0.90831,0.95819 1.15368,2.37527 1.7181,3.56883 0.36504,0.77193 0.57144,1.63668 1.07901,2.32335 0.91601,1.23923 1.92025,2.82066 3.43727,3.09163 1.36835,0.24442 2.87459,-0.57687 3.8741,-1.54284 1.11881,-1.08126 0.65272,-3.31096 1.87395,-4.27504 1.08759,-0.85858 2.90826,-0.017 4.09063,-0.73952 0.92082,-0.56268 1.26271,-1.75358 1.96596,-2.57209 1.01101,-1.17671 2.63267,-1.91916 3.22984,-3.351 0.51459,-1.23385 0.36808,-2.70117 0.0933,-4.00949 -0.28879,-1.37505 -0.94146,-2.69489 -1.78506,-3.8185 -0.8632,-1.14971 -2.24573,-1.80805 -3.2424,-2.8442 -0.77375,-0.8044 -1.33704,-1.79459 -2.10866,-2.60104 -0.8759,-0.91545 -1.66775,-2.05094 -2.84406,-2.52161 -1.28482,-0.51409 -2.76778,-0.0619 -4.1489,-0.14883 -0.07,-0.004 -0.13956,-0.0166 -0.2097,-0.0189 -0.0703,-0.002 -0.21096,0.005 -0.21096,0.005"
                   style="fill:#ffffff;fill-opacity:1;fill-rule:evenodd;stroke:none;stroke-width:0.30000001;stroke-linecap:butt;stroke-linejoin:miter;stroke-miterlimit:4;stroke-dasharray:none;stroke-opacity:1;filter:url(#filter4258)" />
                <g
                   style="fill:#ffffff;fill-opacity:1;filter:url(#filter4226)"
                   id="g4359">
                  <path
                     inkscape:connector-curvature="0"
                     id="path4361"
                     d="m 160.00669,834.54962 c -0.82545,1.1852 -4.28057,-0.20932 -4.15488,1.22953 0.0685,0.78473 2.13491,-0.49084 2.34794,0.26751 0.39144,1.39206 -4.08813,1.37926 -3.42399,2.66377 0.43171,0.83498 2.13248,-1.56463 2.6996,-0.81501 1.00323,1.32604 -3.87696,3.04295 -2.68609,4.20343 0.70101,0.6831 1.59794,-2.15583 2.43261,-1.6446 1.43755,0.88049 -2.2437,4.56797 -0.61945,5.01925 1.38164,0.38386 1.25431,-2.58425 1.75108,-3.92942 0.35138,-0.95148 1.65374,-2.27938 0.86515,-2.91727 -0.39214,-0.3172 -1.02053,1.1231 -1.32876,0.72387 -0.853,-1.10486 3.58629,-1.85327 2.86869,-3.05051 -0.36938,-0.61628 -1.62553,1.11783 -2.08093,0.56208 -0.62036,-0.75708 0.34826,-2.82114 1.30799,-2.62896 0.1036,0.0207 0.0814,0.22961 0.0211,0.31632 z"
                     style="fill:#ff0000;fill-opacity:1;fill-rule:evenodd;stroke:none;stroke-width:0.30000001;stroke-linecap:butt;stroke-linejoin:round;stroke-miterlimit:4;stroke-dasharray:none;stroke-opacity:1"
                     inkscape:transform-center-x="1.8376796"
                     inkscape:transform-center-y="6.5078165"
                     sodipodi:nodetypes="aaaaaaaaaaaaaaa" />
                  <path
                     style="fill:#ff0000;fill-opacity:1;fill-rule:evenodd;stroke:none;stroke-width:0.30000001;stroke-linecap:butt;stroke-linejoin:round;stroke-miterlimit:4;stroke-dasharray:none;stroke-opacity:1"
                     d="m 171.83532,836.39216 c 0.71873,1.25281 4.28249,0.1655 4.03156,1.58787 -0.13683,0.77573 -2.08386,-0.67549 -2.36234,0.0613 -0.51121,1.35266 3.95199,1.73118 3.17816,2.95274 -0.50302,0.79407 -1.98761,-1.74497 -2.61807,-1.04777 -1.11526,1.23332 3.59629,3.37005 2.30857,4.42204 -0.75799,0.61924 -1.40347,-2.28719 -2.27962,-1.85084 -1.50898,0.75153 1.83602,4.74652 0.17855,5.05417 -1.4099,0.2617 -1.02373,-2.68395 -1.40107,-4.06739 -0.2669,-0.97854 -1.44827,-2.41515 -0.60696,-2.9817 0.41836,-0.28173 0.91851,1.20798 1.26044,0.83719 0.94627,-1.02611 -3.41064,-2.15951 -2.5912,-3.28948 0.42181,-0.58165 1.52167,1.25556 2.02388,0.74172 0.68413,-0.7 -0.10046,-2.84078 -1.07331,-2.73318 -0.10505,0.0116 -0.10113,0.22163 -0.0486,0.31329 z"
                     id="path4363"
                     inkscape:connector-curvature="0"
                     inkscape:transform-center-x="-1.9291653"
                     inkscape:transform-center-y="5.2673608"
                     sodipodi:nodetypes="aaaaaaaaaaaaaaa" />
                </g>
                <path
                   sodipodi:nodetypes="aaaaaaaaaaaaaaaaaaaaaaaaa"
                   inkscape:connector-curvature="0"
                   id="path4365"
                   d="m 168.1407,829.3721 c -1.43895,-0.39776 -3.01905,0.60267 -4.22729,1.47956 -1.36284,0.98909 -4.24695,2.81672 -3.06479,4.01593 0.83096,0.84295 1.92643,-2.84969 2.85342,-2.11365 0.90202,0.71621 -0.91963,2.11204 -1.37387,3.17047 -0.60382,1.40698 -3.04003,3.33394 -1.7966,4.2273 1.0335,0.74253 1.76492,-3.19564 2.85343,-2.53638 1.11813,0.6772 -0.71111,2.51957 -0.95114,3.80456 -0.26075,1.39592 -1.87182,3.76702 -0.52842,4.2273 1.24024,0.42493 0.73986,-3.7145 2.00797,-3.38184 1.49967,0.3934 0.0599,3.1003 0.10568,4.65003 0.0573,1.93795 -1.71641,5.60621 0.21137,5.81253 1.84352,0.1973 -0.47621,-5.26852 1.37387,-5.3898 0.75719,-0.0496 0.0983,2.24617 0.84545,2.11364 1.17984,-0.20927 -0.93461,-2.99857 0.10569,-3.5932 0.69809,-0.39902 1.47512,1.65123 2.11364,1.16251 1.06522,-0.81531 -2.02297,-3.10365 -0.95114,-3.91025 0.6808,-0.51233 1.57327,1.82369 2.21933,1.26819 1.25996,-1.08335 -2.85908,-3.37241 -1.7966,-4.65002 0.36667,-0.44092 1.32206,0.75613 1.69092,0.31704 1.16157,-1.38276 -3.27984,-3.90502 -1.90228,-5.07275 0.80661,-0.68374 1.93175,2.25776 2.74774,1.58524 0.91987,-0.75813 -1.85497,-2.41157 -1.16251,-3.38184 0.34789,-0.48746 1.54259,0.54233 1.7966,0 0.7002,-1.49496 -1.57933,-3.36474 -3.17047,-3.80457 z"
                   style="fill:#ff0000;fill-opacity:1;fill-rule:evenodd;stroke:none;stroke-width:0.30000001;stroke-linecap:butt;stroke-linejoin:round;stroke-miterlimit:4;stroke-dasharray:none;stroke-opacity:1;filter:url(#filter4214)" />
              </g>
              <g
                 transform="matrix(-0.58370446,0.81196619,0.81196619,0.58370446,-475.2151,215.76619)"
                 id="g4383"
                 inkscape:transform-center-x="-14.267953"
                 inkscape:transform-center-y="6.3964302">
                <path
                   sodipodi:nodetypes="ccc"
                   inkscape:connector-curvature="0"
                   id="path4385"
                   d="m 170.78666,824.27332 c -36.54807,1.51586 -18.69833,36.7244 3.84224,39.77309 -0.38489,-8.52582 22.72543,-27.45123 -3.84224,-39.77309 z"
                   style="fill:#ffffff;fill-opacity:1;fill-rule:evenodd;stroke:#aa281f;stroke-width:0.30000001;stroke-linecap:butt;stroke-linejoin:round;stroke-miterlimit:4;stroke-dasharray:none;stroke-opacity:1" />
                <path
                   sodipodi:nodetypes="ssaaaaaaassaaaaasssaaaaaassaaaaaaaaa"
                   inkscape:connector-curvature="0"
                   id="path4387"
                   d="m 168.36719,825.03796 c -2.58845,0.13891 -5.21818,2.50673 -7.67774,1.46289 -1.53875,-0.65305 -3.17957,1.23384 -4.43919,2.33275 -1.48438,1.295 -2.46281,3.09579 -3.43322,4.81006 -0.91912,1.62368 -2.14264,3.26915 -2.23269,5.13275 -0.11634,2.40767 1.471,4.59116 2.23173,6.87844 0.42377,1.27417 0.64808,2.63878 1.29937,3.81305 1.22272,2.20456 3.04527,4.03167 4.78104,5.85984 0.79348,0.83572 1.58184,1.71517 2.56188,2.32144 1.19787,0.74102 3.19905,2.27445 3.93695,1.53511 0.90487,-0.90664 2.72268,1.46674 6.45484,1.71746 1.62546,0.1092 2.09319,-3.61319 3.19338,-5.38729 0.67793,-1.0932 1.37241,-2.17677 2.09904,-3.23822 1.14636,-1.67457 2.71363,-3.09314 3.56445,-4.93554 0.88749,-1.9218 1.4791,-4.05216 1.50815,-6.16878 0.0262,-1.90512 -0.16059,-3.9937 -1.20455,-5.58754 -1.11595,-1.70374 -3.05806,-4.20429 -4.96089,-3.56686 -2.22717,0.74609 -2.20654,-3.7248 -4.01615,-5.36079 -0.991,-0.89592 -2.33237,-1.69036 -3.6664,-1.61877 z m -0.19922,1.72266 c 1.47015,0.20067 2.76455,1.14333 3.97846,1.99658 2.6261,1.84586 5.3478,3.8708 6.97867,6.63556 0.9339,1.5832 1.373,3.49763 1.39252,5.33565 0.0209,1.97106 -0.60906,3.93452 -1.37145,5.75228 -0.48392,1.15381 -1.10252,2.3024 -1.9945,3.1798 -1.20575,1.18604 -2.65128,2.58734 -4.34218,2.62491 -2.97092,0.066 -0.96942,5.30384 -2.19173,6.44691 -1.28987,1.20624 -5.3553,-0.90256 -7.75623,-2.08748 -1.58166,-0.78059 -2.987,-1.9382 -4.19955,-3.2191 -1.34412,-1.41988 -2.33003,-3.15069 -3.30802,-4.84369 -1.07763,-1.86547 -2.29456,-3.73027 -2.80238,-5.82392 -0.57031,-2.35127 -0.95279,-4.95655 -0.1991,-7.25561 0.63008,-1.92199 2.19941,-3.46202 3.72514,-4.78987 1.10684,-0.96328 2.44632,-1.66681 3.81453,-2.19691 1.74115,-0.67459 3.64269,-0.82397 5.47076,-1.20457 0.93286,-0.19422 1.86096,-0.67941 2.80506,-0.55054 z"
                   style="fill:#f12121;fill-opacity:1;fill-rule:evenodd;stroke:none;stroke-width:0.30000001;stroke-linecap:butt;stroke-linejoin:round;stroke-miterlimit:4;stroke-dasharray:none;stroke-opacity:1;filter:url(#filter4242)" />
                <path
                   sodipodi:nodetypes="caaaaaaaaaaaaaaaaaaaaaac"
                   inkscape:connector-curvature="0"
                   id="path4389"
                   d="m 165.66355,828.06135 c -1.34566,2.10797 -4.3179,1.30764 -6.38192,2.20518 -1.38949,0.60422 -3.42388,0.73507 -4.01563,2.12992 -0.19972,0.47076 0.46876,0.9646 0.42493,1.47409 -0.12365,1.43725 -1.37295,2.54632 -1.89135,3.89251 -0.45758,1.18826 -1.15013,2.3976 -1.0662,3.66815 0.0955,1.44527 0.77263,2.90887 1.75114,3.97678 0.98607,1.07616 2.83418,1.04811 3.83834,2.10741 0.90831,0.95819 0.96861,2.4819 1.7181,3.56883 0.64732,0.93876 1.6214,1.60843 2.35347,2.48272 0.77972,0.9312 1.07853,2.38505 2.16281,2.93226 1.46561,0.73966 3.6858,1.07421 4.92503,-0.003 1.47783,-1.28407 -0.53459,-4.40476 0.82302,-5.81533 0.96088,-0.99836 2.90826,-0.017 4.09063,-0.73952 0.92082,-0.56268 1.26271,-1.75358 1.96596,-2.57209 1.01101,-1.17671 2.63267,-1.91916 3.22984,-3.351 0.51459,-1.23385 0.36808,-2.70117 0.0933,-4.00949 -0.28879,-1.37505 -0.94146,-2.69489 -1.78506,-3.8185 -0.8632,-1.14971 -2.24573,-1.80805 -3.2424,-2.8442 -0.77375,-0.8044 -1.33704,-1.79459 -2.10866,-2.60104 -0.8759,-0.91545 -1.66775,-2.05094 -2.84406,-2.52161 -1.28482,-0.51409 -2.76778,-0.0619 -4.1489,-0.14883 -0.07,-0.004 -0.13956,-0.0166 -0.2097,-0.0189 -0.0703,-0.002 -0.21096,0.005 -0.21096,0.005"
                   style="fill:#ffffff;fill-opacity:1;fill-rule:evenodd;stroke:none;stroke-width:0.30000001;stroke-linecap:butt;stroke-linejoin:miter;stroke-miterlimit:4;stroke-dasharray:none;stroke-opacity:1;filter:url(#filter4258)" />
                <g
                   style="fill:#ffffff;fill-opacity:1;filter:url(#filter4226)"
                   id="g4391">
                  <path
                     inkscape:connector-curvature="0"
                     id="path4393"
                     d="m 160.00669,834.54962 c -0.82545,1.1852 -4.28057,-0.20932 -4.15488,1.22953 0.0685,0.78473 2.13491,-0.49084 2.34794,0.26751 0.39144,1.39206 -4.08813,1.37926 -3.42399,2.66377 0.43171,0.83498 2.13248,-1.56463 2.6996,-0.81501 1.00323,1.32604 -3.87696,3.04295 -2.68609,4.20343 0.70101,0.6831 1.59794,-2.15583 2.43261,-1.6446 1.43755,0.88049 -2.2437,4.56797 -0.61945,5.01925 1.38164,0.38386 1.25431,-2.58425 1.75108,-3.92942 0.35138,-0.95148 1.65374,-2.27938 0.86515,-2.91727 -0.39214,-0.3172 -1.02053,1.1231 -1.32876,0.72387 -0.853,-1.10486 3.58629,-1.85327 2.86869,-3.05051 -0.36938,-0.61628 -1.62553,1.11783 -2.08093,0.56208 -0.62036,-0.75708 0.34826,-2.82114 1.30799,-2.62896 0.1036,0.0207 0.0814,0.22961 0.0211,0.31632 z"
                     style="fill:#ff0000;fill-opacity:1;fill-rule:evenodd;stroke:none;stroke-width:0.30000001;stroke-linecap:butt;stroke-linejoin:round;stroke-miterlimit:4;stroke-dasharray:none;stroke-opacity:1"
                     inkscape:transform-center-x="1.8376796"
                     inkscape:transform-center-y="6.5078165"
                     sodipodi:nodetypes="aaaaaaaaaaaaaaa" />
                  <path
                     style="fill:#ff0000;fill-opacity:1;fill-rule:evenodd;stroke:none;stroke-width:0.30000001;stroke-linecap:butt;stroke-linejoin:round;stroke-miterlimit:4;stroke-dasharray:none;stroke-opacity:1"
                     d="m 171.83532,836.39216 c 0.71873,1.25281 4.28249,0.1655 4.03156,1.58787 -0.13683,0.77573 -2.08386,-0.67549 -2.36234,0.0613 -0.51121,1.35266 3.95199,1.73118 3.17816,2.95274 -0.50302,0.79407 -1.98761,-1.74497 -2.61807,-1.04777 -1.11526,1.23332 3.59629,3.37005 2.30857,4.42204 -0.75799,0.61924 -1.40347,-2.28719 -2.27962,-1.85084 -1.50898,0.75153 1.83602,4.74652 0.17855,5.05417 -1.4099,0.2617 -1.02373,-2.68395 -1.40107,-4.06739 -0.2669,-0.97854 -1.44827,-2.41515 -0.60696,-2.9817 0.41836,-0.28173 0.91851,1.20798 1.26044,0.83719 0.94627,-1.02611 -3.41064,-2.15951 -2.5912,-3.28948 0.42181,-0.58165 1.52167,1.25556 2.02388,0.74172 0.68413,-0.7 -0.10046,-2.84078 -1.07331,-2.73318 -0.10505,0.0116 -0.10113,0.22163 -0.0486,0.31329 z"
                     id="path4395"
                     inkscape:connector-curvature="0"
                     inkscape:transform-center-x="-1.9291653"
                     inkscape:transform-center-y="5.2673608"
                     sodipodi:nodetypes="aaaaaaaaaaaaaaa" />
                </g>
                <path
                   sodipodi:nodetypes="aaaaaaaaaaaaaaaaaaaaaaaaa"
                   inkscape:connector-curvature="0"
                   id="path4397"
                   d="m 168.1407,829.3721 c -1.43895,-0.39776 -3.01905,0.60267 -4.22729,1.47956 -1.36284,0.98909 -4.24695,2.81672 -3.06479,4.01593 0.83096,0.84295 1.92643,-2.84969 2.85342,-2.11365 0.90202,0.71621 -0.91963,2.11204 -1.37387,3.17047 -0.60382,1.40698 -3.04003,3.33394 -1.7966,4.2273 1.0335,0.74253 1.76492,-3.19564 2.85343,-2.53638 1.11813,0.6772 -0.71111,2.51957 -0.95114,3.80456 -0.26075,1.39592 -1.87182,3.76702 -0.52842,4.2273 1.24024,0.42493 0.73986,-3.7145 2.00797,-3.38184 1.49967,0.3934 -0.0916,3.11222 0.10568,4.65003 0.30759,2.39795 -0.72881,7.35352 1.67062,7.05775 2.19524,-0.2706 -2.25459,-6.20278 -0.0854,-6.63502 0.74419,-0.14829 0.0983,2.24617 0.84545,2.11364 1.17984,-0.20927 -0.93461,-2.99857 0.10569,-3.5932 0.69809,-0.39902 1.47512,1.65123 2.11364,1.16251 1.06522,-0.81531 -2.02297,-3.10365 -0.95114,-3.91025 0.6808,-0.51233 1.57327,1.82369 2.21933,1.26819 1.25996,-1.08335 -2.85908,-3.37241 -1.7966,-4.65002 0.36667,-0.44092 1.32206,0.75613 1.69092,0.31704 1.16157,-1.38276 -3.27984,-3.90502 -1.90228,-5.07275 0.80661,-0.68374 1.93175,2.25776 2.74774,1.58524 0.91987,-0.75813 -1.85497,-2.41157 -1.16251,-3.38184 0.34789,-0.48746 1.54259,0.54233 1.7966,0 0.7002,-1.49496 -1.57933,-3.36474 -3.17047,-3.80457 z"
                   style="fill:#ff0000;fill-opacity:1;fill-rule:evenodd;stroke:none;stroke-width:0.30000001;stroke-linecap:butt;stroke-linejoin:round;stroke-miterlimit:4;stroke-dasharray:none;stroke-opacity:1;filter:url(#filter4214)" />
              </g>
            </g>
            <g
               id="g4625">
              <g
                 transform="translate(-80.554723,9.7150261)"
                 inkscape:transform-center-y="16.191396"
                 inkscape:transform-center-x="2.2415122"
                 id="g4262">
                <path
                   style="fill:#ffffff;fill-opacity:1;fill-rule:evenodd;stroke:#aa281f;stroke-width:0.30000001;stroke-linecap:butt;stroke-linejoin:round;stroke-miterlimit:4;stroke-dasharray:none;stroke-opacity:1"
                   d="m 170.78666,824.27332 c -36.54807,1.51586 -14.82448,34.77545 -6.35173,35.55913 9.13893,-4.03376 32.6238,-17.36754 6.35173,-35.55913 z"
                   id="path3365"
                   inkscape:connector-curvature="0"
                   sodipodi:nodetypes="ccc" />
                <path
                   style="fill:#f12121;fill-opacity:1;fill-rule:evenodd;stroke:none;stroke-width:0.30000001;stroke-linecap:butt;stroke-linejoin:round;stroke-miterlimit:4;stroke-dasharray:none;stroke-opacity:1;filter:url(#filter4242)"
                   d="m 168.36719,825.03796 c -2.58845,0.13891 -5.21818,2.50673 -7.67774,1.46289 -1.53875,-0.65305 -3.17957,1.23384 -4.43919,2.33275 -1.48438,1.295 -2.46281,3.09579 -3.43322,4.81006 -0.91912,1.62368 -2.14264,3.26915 -2.23269,5.13275 -0.11634,2.40767 1.471,4.59116 2.23173,6.87844 0.42377,1.27417 0.64808,2.63878 1.29937,3.81305 1.22272,2.20456 3.04527,4.03167 4.78104,5.85984 0.79348,0.83572 1.52595,1.81658 2.56188,2.32144 0.93898,0.45761 2.3502,1.27183 3.0881,0.53249 0.90487,-0.90664 2.10449,-2.31308 5.83665,-2.06236 1.62546,0.1092 2.68746,-1.84932 3.94508,-2.8849 0.48389,-0.39846 0.94222,-0.82875 1.3806,-1.27679 1.52379,-1.55732 3.21406,-3.02447 4.33247,-4.89432 1.07447,-1.79641 2.02628,-3.80337 2.17391,-5.89138 0.13437,-1.90056 -0.16059,-3.9937 -1.20455,-5.58754 -1.11595,-1.70374 -3.05806,-4.20429 -4.96089,-3.56686 -2.22717,0.74609 -2.20654,-3.7248 -4.01615,-5.36079 -0.991,-0.89592 -2.33237,-1.69036 -3.6664,-1.61877 z m -0.19922,1.72266 c 1.47015,0.20067 2.76455,1.14333 3.97846,1.99658 2.6261,1.84586 5.3478,3.8708 6.97867,6.63556 0.9339,1.5832 1.373,3.49763 1.39252,5.33565 0.0209,1.97106 -0.60906,3.93452 -1.37145,5.75228 -0.48392,1.15381 -1.10252,2.3024 -1.9945,3.1798 -1.20575,1.18604 -2.65128,2.58734 -4.34218,2.62491 -2.97092,0.066 -3.55233,2.07364 -4.77464,3.21671 -1.28987,1.20624 -3.44923,1.52519 -5.17332,1.14272 -1.72194,-0.38199 -2.987,-1.9382 -4.19955,-3.2191 -1.34412,-1.41988 -2.33003,-3.15069 -3.30802,-4.84369 -1.07763,-1.86547 -2.29456,-3.73027 -2.80238,-5.82392 -0.57031,-2.35127 -0.95279,-4.95655 -0.1991,-7.25561 0.63008,-1.92199 2.19941,-3.46202 3.72514,-4.78987 1.10684,-0.96328 2.44632,-1.66681 3.81453,-2.19691 1.74115,-0.67459 3.64269,-0.82397 5.47076,-1.20457 0.93286,-0.19422 1.86096,-0.67941 2.80506,-0.55054 z"
                   id="path4187"
                   inkscape:connector-curvature="0"
                   sodipodi:nodetypes="ssaaaaaaassaaaaasssaaaaaassaaaaaaaaa" />
                <path
                   style="fill:#ffffff;fill-opacity:1;fill-rule:evenodd;stroke:none;stroke-width:0.30000001;stroke-linecap:butt;stroke-linejoin:miter;stroke-miterlimit:4;stroke-dasharray:none;stroke-opacity:1;filter:url(#filter4258)"
                   d="m 165.66355,828.06135 c -1.34566,2.10797 -4.3179,1.30764 -6.38192,2.20518 -1.38949,0.60422 -3.42388,0.73507 -4.01563,2.12992 -0.19972,0.47076 0.46876,0.9646 0.42493,1.47409 -0.12365,1.43725 -1.37295,2.54632 -1.89135,3.89251 -0.45758,1.18826 -1.15013,2.3976 -1.0662,3.66815 0.0955,1.44527 0.77263,2.90887 1.75114,3.97678 0.98607,1.07616 2.83418,1.04811 3.83834,2.10741 0.90831,0.95819 0.96861,2.4819 1.7181,3.56883 0.64732,0.93876 1.6214,1.60843 2.35347,2.48272 0.77972,0.9312 0.94953,2.87695 2.16281,2.93226 1.10755,0.0505 1.55435,-1.59172 2.20969,-2.48601 1.08284,-1.47765 1.16709,-3.92301 2.81712,-4.71888 1.4577,-0.70311 3.31635,1.2661 4.81187,0.64749 0.99719,-0.41248 1.26271,-1.75358 1.96596,-2.57209 1.01101,-1.17671 2.63267,-1.91916 3.22984,-3.351 0.51459,-1.23385 0.36808,-2.70117 0.0933,-4.00949 -0.28879,-1.37505 -0.94146,-2.69489 -1.78506,-3.8185 -0.8632,-1.14971 -2.24573,-1.80805 -3.2424,-2.8442 -0.77375,-0.8044 -1.33704,-1.79459 -2.10866,-2.60104 -0.8759,-0.91545 -1.66775,-2.05094 -2.84406,-2.52161 -1.28482,-0.51409 -2.76778,-0.0619 -4.1489,-0.14883 -0.07,-0.004 -0.13956,-0.0166 -0.2097,-0.0189 -0.0703,-0.002 -0.21096,0.005 -0.21096,0.005"
                   id="path4195"
                   inkscape:connector-curvature="0"
                   sodipodi:nodetypes="caaaaaaaaaaaaaaaaaaaaaac" />
                <g
                   id="g4202"
                   style="fill:#ffffff;fill-opacity:1;filter:url(#filter4226)">
                  <path
                     sodipodi:nodetypes="aaaaaaaaaaaaaaa"
                     inkscape:transform-center-y="6.5078165"
                     inkscape:transform-center-x="1.8376796"
                     style="fill:#ff0000;fill-opacity:1;fill-rule:evenodd;stroke:none;stroke-width:0.30000001;stroke-linecap:butt;stroke-linejoin:round;stroke-miterlimit:4;stroke-dasharray:none;stroke-opacity:1"
                     d="m 160.00669,834.54962 c -0.82545,1.1852 -4.28057,-0.20932 -4.15488,1.22953 0.0685,0.78473 2.13491,-0.49084 2.34794,0.26751 0.39144,1.39206 -4.08813,1.37926 -3.42399,2.66377 0.43171,0.83498 2.13248,-1.56463 2.6996,-0.81501 1.00323,1.32604 -3.87696,3.04295 -2.68609,4.20343 0.70101,0.6831 1.59794,-2.15583 2.43261,-1.6446 1.43755,0.88049 -2.2437,4.56797 -0.61945,5.01925 1.38164,0.38386 1.25431,-2.58425 1.75108,-3.92942 0.35138,-0.95148 1.65374,-2.27938 0.86515,-2.91727 -0.39214,-0.3172 -1.02053,1.1231 -1.32876,0.72387 -0.853,-1.10486 3.58629,-1.85327 2.86869,-3.05051 -0.36938,-0.61628 -1.62553,1.11783 -2.08093,0.56208 -0.62036,-0.75708 0.34826,-2.82114 1.30799,-2.62896 0.1036,0.0207 0.0814,0.22961 0.0211,0.31632 z"
                     id="path3385"
                     inkscape:connector-curvature="0" />
                  <path
                     sodipodi:nodetypes="aaaaaaaaaaaaaaa"
                     inkscape:transform-center-y="5.2673608"
                     inkscape:transform-center-x="-1.9291653"
                     inkscape:connector-curvature="0"
                     id="path3383"
                     d="m 171.83532,836.39216 c 0.71873,1.25281 4.28249,0.1655 4.03156,1.58787 -0.13683,0.77573 -2.08386,-0.67549 -2.36234,0.0613 -0.51121,1.35266 3.95199,1.73118 3.17816,2.95274 -0.50302,0.79407 -1.98761,-1.74497 -2.61807,-1.04777 -1.11526,1.23332 3.59629,3.37005 2.30857,4.42204 -0.75799,0.61924 -1.40347,-2.28719 -2.27962,-1.85084 -1.50898,0.75153 1.83602,4.74652 0.17855,5.05417 -1.4099,0.2617 -1.02373,-2.68395 -1.40107,-4.06739 -0.2669,-0.97854 -1.44827,-2.41515 -0.60696,-2.9817 0.41836,-0.28173 0.91851,1.20798 1.26044,0.83719 0.94627,-1.02611 -3.41064,-2.15951 -2.5912,-3.28948 0.42181,-0.58165 1.52167,1.25556 2.02388,0.74172 0.68413,-0.7 -0.10046,-2.84078 -1.07331,-2.73318 -0.10505,0.0116 -0.10113,0.22163 -0.0486,0.31329 z"
                     style="fill:#ff0000;fill-opacity:1;fill-rule:evenodd;stroke:none;stroke-width:0.30000001;stroke-linecap:butt;stroke-linejoin:round;stroke-miterlimit:4;stroke-dasharray:none;stroke-opacity:1" />
                </g>
                <path
                   style="fill:#ff0000;fill-opacity:1;fill-rule:evenodd;stroke:none;stroke-width:0.30000001;stroke-linecap:butt;stroke-linejoin:round;stroke-miterlimit:4;stroke-dasharray:none;stroke-opacity:1;filter:url(#filter4214)"
                   d="m 168.1407,829.3721 c -1.43895,-0.39776 -3.01905,0.60267 -4.22729,1.47956 -1.36284,0.98909 -4.24695,2.81672 -3.06479,4.01593 0.83096,0.84295 1.92643,-2.84969 2.85342,-2.11365 0.90202,0.71621 -0.91963,2.11204 -1.37387,3.17047 -0.60382,1.40698 -3.04003,3.33394 -1.7966,4.2273 1.0335,0.74253 1.76492,-3.19564 2.85343,-2.53638 1.11813,0.6772 -0.71111,2.51957 -0.95114,3.80456 -0.26075,1.39592 -1.87182,3.76702 -0.52842,4.2273 1.24024,0.42493 0.73986,-3.7145 2.00797,-3.38184 1.49967,0.3934 0.0599,3.1003 0.10568,4.65003 0.0573,1.93795 -1.71641,5.60621 0.21137,5.81253 1.84352,0.1973 -0.47621,-5.26852 1.37387,-5.3898 0.75719,-0.0496 0.0983,2.24617 0.84545,2.11364 1.17984,-0.20927 -0.93461,-2.99857 0.10569,-3.5932 0.69809,-0.39902 1.47512,1.65123 2.11364,1.16251 1.06522,-0.81531 -2.02297,-3.10365 -0.95114,-3.91025 0.6808,-0.51233 1.57327,1.82369 2.21933,1.26819 1.25996,-1.08335 -2.85908,-3.37241 -1.7966,-4.65002 0.36667,-0.44092 1.32206,0.75613 1.69092,0.31704 1.16157,-1.38276 -3.27984,-3.90502 -1.90228,-5.07275 0.80661,-0.68374 1.93175,2.25776 2.74774,1.58524 0.91987,-0.75813 -1.85497,-2.41157 -1.16251,-3.38184 0.34789,-0.48746 1.54259,0.54233 1.7966,0 0.7002,-1.49496 -1.57933,-3.36474 -3.17047,-3.80457 z"
                   id="path3381"
                   inkscape:connector-curvature="0"
                   sodipodi:nodetypes="aaaaaaaaaaaaaaaaaaaaaaaaa" />
              </g>
              <g
                 inkscape:transform-center-y="-8.0062576"
                 inkscape:transform-center-x="12.853285"
                 id="g4303"
                 transform="matrix(-0.40687414,0.91348423,-0.91348423,-0.40687414,907.22784,1005.1744)">
                <path
                   style="fill:#ffffff;fill-opacity:1;fill-rule:evenodd;stroke:#aa281f;stroke-width:0.30000001;stroke-linecap:butt;stroke-linejoin:round;stroke-miterlimit:4;stroke-dasharray:none;stroke-opacity:1"
                   d="m 170.78666,824.27332 c -36.54807,1.51586 -13.58535,37.52876 -5.1126,38.31244 9.13893,-4.03376 31.38467,-20.12085 5.1126,-38.31244 z"
                   id="path4305"
                   inkscape:connector-curvature="0"
                   sodipodi:nodetypes="ccc" />
                <path
                   style="fill:#f12121;fill-opacity:1;fill-rule:evenodd;stroke:none;stroke-width:0.30000001;stroke-linecap:butt;stroke-linejoin:round;stroke-miterlimit:4;stroke-dasharray:none;stroke-opacity:1;filter:url(#filter4242)"
                   d="m 168.36719,825.03796 c -2.58845,0.13891 -5.21818,2.50673 -7.67774,1.46289 -1.53875,-0.65305 -3.17957,1.23384 -4.43919,2.33275 -1.48438,1.295 -2.46281,3.09579 -3.43322,4.81006 -0.91912,1.62368 -2.14264,3.26915 -2.23269,5.13275 -0.11634,2.40767 1.471,4.59116 2.23173,6.87844 0.42377,1.27417 0.64808,2.63878 1.29937,3.81305 1.22272,2.20456 3.04527,4.03167 4.78104,5.85984 0.79348,0.83572 1.52595,1.81658 2.56188,2.32144 0.93898,0.45761 2.3502,1.27183 3.0881,0.53249 0.90487,-0.90664 2.10449,-2.31308 5.83665,-2.06236 1.62546,0.1092 2.49989,-2.13293 3.94508,-2.8849 0.87912,-0.45743 2.01757,-0.36894 2.81438,-0.95817 1.63169,-1.20661 2.71363,-3.09314 3.56445,-4.93554 0.88749,-1.9218 1.4791,-4.05216 1.50815,-6.16878 0.0262,-1.90512 -0.16059,-3.9937 -1.20455,-5.58754 -1.11595,-1.70374 -3.05806,-4.20429 -4.96089,-3.56686 -2.22717,0.74609 -2.20654,-3.7248 -4.01615,-5.36079 -0.991,-0.89592 -2.33237,-1.69036 -3.6664,-1.61877 z m -0.19922,1.72266 c 1.47015,0.20067 2.76455,1.14333 3.97846,1.99658 2.6261,1.84586 5.3478,3.8708 6.97867,6.63556 0.9339,1.5832 1.373,3.49763 1.39252,5.33565 0.0209,1.97106 -0.60906,3.93452 -1.37145,5.75228 -0.48392,1.15381 -1.10252,2.3024 -1.9945,3.1798 -1.20575,1.18604 -2.65128,2.58734 -4.34218,2.62491 -2.97092,0.066 -3.55233,2.07364 -4.77464,3.21671 -1.28987,1.20624 -3.44923,1.52519 -5.17332,1.14272 -1.72194,-0.38199 -2.987,-1.9382 -4.19955,-3.2191 -1.34412,-1.41988 -2.33003,-3.15069 -3.30802,-4.84369 -1.07763,-1.86547 -2.29456,-3.73027 -2.80238,-5.82392 -0.57031,-2.35127 -0.95279,-4.95655 -0.1991,-7.25561 0.63008,-1.92199 2.19941,-3.46202 3.72514,-4.78987 1.10684,-0.96328 2.44632,-1.66681 3.81453,-2.19691 1.74115,-0.67459 3.64269,-0.82397 5.47076,-1.20457 0.93286,-0.19422 1.86096,-0.67941 2.80506,-0.55054 z"
                   id="path4307"
                   inkscape:connector-curvature="0"
                   sodipodi:nodetypes="ssaaaaaaassaaaaasssaaaaaassaaaaaaaaa" />
                <path
                   style="fill:#ffffff;fill-opacity:1;fill-rule:evenodd;stroke:none;stroke-width:0.30000001;stroke-linecap:butt;stroke-linejoin:miter;stroke-miterlimit:4;stroke-dasharray:none;stroke-opacity:1;filter:url(#filter4258)"
                   d="m 165.66355,828.06135 c -1.34566,2.10797 -4.3179,1.30764 -6.38192,2.20518 -1.38949,0.60422 -3.42388,0.73507 -4.01563,2.12992 -0.19972,0.47076 0.46876,0.9646 0.42493,1.47409 -0.12365,1.43725 -1.37295,2.54632 -1.89135,3.89251 -0.45758,1.18826 -1.15013,2.3976 -1.0662,3.66815 0.0955,1.44527 0.77263,2.90887 1.75114,3.97678 0.98607,1.07616 2.83418,1.04811 3.83834,2.10741 0.90831,0.95819 0.96861,2.4819 1.7181,3.56883 0.64732,0.93876 1.6214,1.60843 2.35347,2.48272 0.77972,0.9312 0.99495,2.59878 2.16281,2.93226 1.33658,0.38166 2.87459,-0.57687 3.8741,-1.54284 1.11881,-1.08126 0.65272,-3.31096 1.87395,-4.27504 1.08759,-0.85858 2.90826,-0.017 4.09063,-0.73952 0.92082,-0.56268 1.26271,-1.75358 1.96596,-2.57209 1.01101,-1.17671 2.63267,-1.91916 3.22984,-3.351 0.51459,-1.23385 0.36808,-2.70117 0.0933,-4.00949 -0.28879,-1.37505 -0.94146,-2.69489 -1.78506,-3.8185 -0.8632,-1.14971 -2.24573,-1.80805 -3.2424,-2.8442 -0.77375,-0.8044 -1.33704,-1.79459 -2.10866,-2.60104 -0.8759,-0.91545 -1.66775,-2.05094 -2.84406,-2.52161 -1.28482,-0.51409 -2.76778,-0.0619 -4.1489,-0.14883 -0.07,-0.004 -0.13956,-0.0166 -0.2097,-0.0189 -0.0703,-0.002 -0.21096,0.005 -0.21096,0.005"
                   id="path4309"
                   inkscape:connector-curvature="0"
                   sodipodi:nodetypes="caaaaaaaaaaaaaaaaaaaaaac" />
                <g
                   id="g4311"
                   style="fill:#ffffff;fill-opacity:1;filter:url(#filter4226)">
                  <path
                     sodipodi:nodetypes="aaaaaaaaaaaaaaa"
                     inkscape:transform-center-y="6.5078165"
                     inkscape:transform-center-x="1.8376796"
                     style="fill:#ff0000;fill-opacity:1;fill-rule:evenodd;stroke:none;stroke-width:0.30000001;stroke-linecap:butt;stroke-linejoin:round;stroke-miterlimit:4;stroke-dasharray:none;stroke-opacity:1"
                     d="m 160.00669,834.54962 c -0.82545,1.1852 -4.28057,-0.20932 -4.15488,1.22953 0.0685,0.78473 2.13491,-0.49084 2.34794,0.26751 0.39144,1.39206 -4.08813,1.37926 -3.42399,2.66377 0.43171,0.83498 2.13248,-1.56463 2.6996,-0.81501 1.00323,1.32604 -3.87696,3.04295 -2.68609,4.20343 0.70101,0.6831 1.59794,-2.15583 2.43261,-1.6446 1.43755,0.88049 -2.2437,4.56797 -0.61945,5.01925 1.38164,0.38386 1.25431,-2.58425 1.75108,-3.92942 0.35138,-0.95148 1.65374,-2.27938 0.86515,-2.91727 -0.39214,-0.3172 -1.02053,1.1231 -1.32876,0.72387 -0.853,-1.10486 3.58629,-1.85327 2.86869,-3.05051 -0.36938,-0.61628 -1.62553,1.11783 -2.08093,0.56208 -0.62036,-0.75708 0.34826,-2.82114 1.30799,-2.62896 0.1036,0.0207 0.0814,0.22961 0.0211,0.31632 z"
                     id="path4313"
                     inkscape:connector-curvature="0" />
                  <path
                     sodipodi:nodetypes="aaaaaaaaaaaaaaa"
                     inkscape:transform-center-y="5.2673608"
                     inkscape:transform-center-x="-1.9291653"
                     inkscape:connector-curvature="0"
                     id="path4315"
                     d="m 171.83532,836.39216 c 0.71873,1.25281 4.28249,0.1655 4.03156,1.58787 -0.13683,0.77573 -2.08386,-0.67549 -2.36234,0.0613 -0.51121,1.35266 3.95199,1.73118 3.17816,2.95274 -0.50302,0.79407 -1.98761,-1.74497 -2.61807,-1.04777 -1.11526,1.23332 3.59629,3.37005 2.30857,4.42204 -0.75799,0.61924 -1.40347,-2.28719 -2.27962,-1.85084 -1.50898,0.75153 1.83602,4.74652 0.17855,5.05417 -1.4099,0.2617 -1.02373,-2.68395 -1.40107,-4.06739 -0.2669,-0.97854 -1.44827,-2.41515 -0.60696,-2.9817 0.41836,-0.28173 0.91851,1.20798 1.26044,0.83719 0.94627,-1.02611 -3.41064,-2.15951 -2.5912,-3.28948 0.42181,-0.58165 1.52167,1.25556 2.02388,0.74172 0.68413,-0.7 -0.10046,-2.84078 -1.07331,-2.73318 -0.10505,0.0116 -0.10113,0.22163 -0.0486,0.31329 z"
                     style="fill:#ff0000;fill-opacity:1;fill-rule:evenodd;stroke:none;stroke-width:0.30000001;stroke-linecap:butt;stroke-linejoin:round;stroke-miterlimit:4;stroke-dasharray:none;stroke-opacity:1" />
                </g>
                <path
                   style="fill:#ff0000;fill-opacity:1;fill-rule:evenodd;stroke:none;stroke-width:0.30000001;stroke-linecap:butt;stroke-linejoin:round;stroke-miterlimit:4;stroke-dasharray:none;stroke-opacity:1;filter:url(#filter4214)"
                   d="m 168.1407,829.3721 c -1.43895,-0.39776 -3.01905,0.60267 -4.22729,1.47956 -1.36284,0.98909 -4.24695,2.81672 -3.06479,4.01593 0.83096,0.84295 1.92643,-2.84969 2.85342,-2.11365 0.90202,0.71621 -0.91963,2.11204 -1.37387,3.17047 -0.60382,1.40698 -3.04003,3.33394 -1.7966,4.2273 1.0335,0.74253 1.76492,-3.19564 2.85343,-2.53638 1.11813,0.6772 -0.71111,2.51957 -0.95114,3.80456 -0.26075,1.39592 -1.87182,3.76702 -0.52842,4.2273 1.24024,0.42493 0.73986,-3.7145 2.00797,-3.38184 1.49967,0.3934 0.0599,3.1003 0.10568,4.65003 0.0573,1.93795 -1.71641,5.60621 0.21137,5.81253 1.84352,0.1973 -0.47621,-5.26852 1.37387,-5.3898 0.75719,-0.0496 0.0983,2.24617 0.84545,2.11364 1.17984,-0.20927 -0.93461,-2.99857 0.10569,-3.5932 0.69809,-0.39902 1.47512,1.65123 2.11364,1.16251 1.06522,-0.81531 -2.02297,-3.10365 -0.95114,-3.91025 0.6808,-0.51233 1.69525,1.93999 2.21933,1.26819 1.29338,-1.65792 -5.24204,-2.63824 -4.3684,-4.5509 0.59112,-1.29415 3.42272,1.36625 4.26272,0.21792 1.0662,-1.45756 -3.27984,-3.90502 -1.90228,-5.07275 0.80661,-0.68374 1.93175,2.25776 2.74774,1.58524 0.91987,-0.75813 -1.85497,-2.41157 -1.16251,-3.38184 0.34789,-0.48746 1.54259,0.54233 1.7966,0 0.7002,-1.49496 -1.57933,-3.36474 -3.17047,-3.80457 z"
                   id="path4317"
                   inkscape:connector-curvature="0"
                   sodipodi:nodetypes="aaaaaaaaaaaaaaaaaaaaaaaaa" />
              </g>
              <g
                 inkscape:transform-center-y="-3.5800444"
                 inkscape:transform-center-x="-15.950574"
                 id="g4367"
                 transform="matrix(0.09650454,0.99533254,0.99533254,-0.09650454,-741.93578,735.24811)">
                <path
                   style="fill:#ffffff;fill-opacity:1;fill-rule:evenodd;stroke:#aa281f;stroke-width:0.30000001;stroke-linecap:butt;stroke-linejoin:round;stroke-miterlimit:4;stroke-dasharray:none;stroke-opacity:1"
                   d="m 170.78666,824.27332 c -36.54807,1.51586 -15.30241,34.45683 -6.82966,35.24051 9.13893,-4.03376 33.10173,-17.04892 6.82966,-35.24051 z"
                   id="path4369"
                   inkscape:connector-curvature="0"
                   sodipodi:nodetypes="ccc" />
                <path
                   style="fill:#f12121;fill-opacity:1;fill-rule:evenodd;stroke:none;stroke-width:0.30000001;stroke-linecap:butt;stroke-linejoin:round;stroke-miterlimit:4;stroke-dasharray:none;stroke-opacity:1;filter:url(#filter4242)"
                   d="m 168.36719,825.03796 c -2.58845,0.13891 -5.21818,2.50673 -7.67774,1.46289 -1.53875,-0.65305 -3.17957,1.23384 -4.43919,2.33275 -1.48438,1.295 -2.46281,3.09579 -3.43322,4.81006 -0.91912,1.62368 -2.14264,3.26915 -2.23269,5.13275 -0.11634,2.40767 1.471,4.59116 2.23173,6.87844 0.42377,1.27417 0.64808,2.63878 1.29937,3.81305 1.22272,2.20456 3.04527,4.03167 4.78104,5.85984 0.79348,0.83572 1.52595,1.81658 2.56188,2.32144 0.93898,0.45761 2.3502,1.27183 3.0881,0.53249 0.90487,-0.90664 2.10449,-2.31308 5.83665,-2.06236 1.62546,0.1092 2.49989,-2.13293 3.94508,-2.8849 0.87912,-0.45743 2.01757,-0.36894 2.81438,-0.95817 1.63169,-1.20661 2.71363,-3.09314 3.56445,-4.93554 0.88749,-1.9218 1.4791,-4.05216 1.50815,-6.16878 0.0262,-1.90512 -0.16059,-3.9937 -1.20455,-5.58754 -1.11595,-1.70374 -3.05806,-4.20429 -4.96089,-3.56686 -2.22717,0.74609 -2.20654,-3.7248 -4.01615,-5.36079 -0.991,-0.89592 -2.33237,-1.69036 -3.6664,-1.61877 z m -0.19922,1.72266 c 1.47015,0.20067 2.76455,1.14333 3.97846,1.99658 2.6261,1.84586 5.3478,3.8708 6.97867,6.63556 0.9339,1.5832 1.373,3.49763 1.39252,5.33565 0.0209,1.97106 -0.60906,3.93452 -1.37145,5.75228 -0.48392,1.15381 -1.10252,2.3024 -1.9945,3.1798 -1.20575,1.18604 -2.65128,2.58734 -4.34218,2.62491 -2.97092,0.066 -3.55233,2.07364 -4.77464,3.21671 -1.28987,1.20624 -3.44923,1.52519 -5.17332,1.14272 -1.72194,-0.38199 -2.987,-1.9382 -4.19955,-3.2191 -1.34412,-1.41988 -2.33003,-3.15069 -3.30802,-4.84369 -1.07763,-1.86547 -2.29456,-3.73027 -2.80238,-5.82392 -0.57031,-2.35127 -0.95279,-4.95655 -0.1991,-7.25561 0.63008,-1.92199 2.19941,-3.46202 3.72514,-4.78987 1.10684,-0.96328 2.44632,-1.66681 3.81453,-2.19691 1.74115,-0.67459 3.64269,-0.82397 5.47076,-1.20457 0.93286,-0.19422 1.86096,-0.67941 2.80506,-0.55054 z"
                   id="path4371"
                   inkscape:connector-curvature="0"
                   sodipodi:nodetypes="ssaaaaaaassaaaaasssaaaaaassaaaaaaaaa" />
                <path
                   style="fill:#ffffff;fill-opacity:1;fill-rule:evenodd;stroke:none;stroke-width:0.30000001;stroke-linecap:butt;stroke-linejoin:miter;stroke-miterlimit:4;stroke-dasharray:none;stroke-opacity:1;filter:url(#filter4258)"
                   d="m 165.66355,828.06135 c -1.34566,2.10797 -4.3179,1.30764 -6.38192,2.20518 -1.38949,0.60422 -3.42388,0.73507 -4.01563,2.12992 -0.19972,0.47076 0.46876,0.9646 0.42493,1.47409 -0.12365,1.43725 -1.37295,2.54632 -1.89135,3.89251 -0.45758,1.18826 -1.15013,2.3976 -1.0662,3.66815 0.0955,1.44527 0.77263,2.90887 1.75114,3.97678 0.98607,1.07616 2.83418,1.04811 3.83834,2.10741 0.90831,0.95819 0.96861,2.4819 1.7181,3.56883 0.64732,0.93876 1.6214,1.60843 2.35347,2.48272 0.77972,0.9312 0.99495,2.59878 2.16281,2.93226 1.33658,0.38166 2.87459,-0.57687 3.8741,-1.54284 1.11881,-1.08126 0.65272,-3.31096 1.87395,-4.27504 1.08759,-0.85858 2.90826,-0.017 4.09063,-0.73952 0.92082,-0.56268 1.26271,-1.75358 1.96596,-2.57209 1.01101,-1.17671 2.63267,-1.91916 3.22984,-3.351 0.51459,-1.23385 0.36808,-2.70117 0.0933,-4.00949 -0.28879,-1.37505 -0.94146,-2.69489 -1.78506,-3.8185 -0.8632,-1.14971 -2.24573,-1.80805 -3.2424,-2.8442 -0.77375,-0.8044 -1.33704,-1.79459 -2.10866,-2.60104 -0.8759,-0.91545 -1.66775,-2.05094 -2.84406,-2.52161 -1.28482,-0.51409 -2.76778,-0.0619 -4.1489,-0.14883 -0.07,-0.004 -0.13956,-0.0166 -0.2097,-0.0189 -0.0703,-0.002 -0.21096,0.005 -0.21096,0.005"
                   id="path4373"
                   inkscape:connector-curvature="0"
                   sodipodi:nodetypes="caaaaaaaaaaaaaaaaaaaaaac" />
                <g
                   id="g4375"
                   style="fill:#ffffff;fill-opacity:1;filter:url(#filter4226)">
                  <path
                     sodipodi:nodetypes="aaaaaaaaaaaaaaa"
                     inkscape:transform-center-y="6.5078165"
                     inkscape:transform-center-x="1.8376796"
                     style="fill:#ff0000;fill-opacity:1;fill-rule:evenodd;stroke:none;stroke-width:0.30000001;stroke-linecap:butt;stroke-linejoin:round;stroke-miterlimit:4;stroke-dasharray:none;stroke-opacity:1"
                     d="m 160.00669,834.54962 c -0.82545,1.1852 -4.28057,-0.20932 -4.15488,1.22953 0.0685,0.78473 2.13491,-0.49084 2.34794,0.26751 0.39144,1.39206 -4.08813,1.37926 -3.42399,2.66377 0.43171,0.83498 2.13248,-1.56463 2.6996,-0.81501 1.00323,1.32604 -3.87696,3.04295 -2.68609,4.20343 0.70101,0.6831 1.59794,-2.15583 2.43261,-1.6446 1.43755,0.88049 -2.2437,4.56797 -0.61945,5.01925 1.38164,0.38386 1.25431,-2.58425 1.75108,-3.92942 0.35138,-0.95148 1.65374,-2.27938 0.86515,-2.91727 -0.39214,-0.3172 -1.02053,1.1231 -1.32876,0.72387 -0.853,-1.10486 3.58629,-1.85327 2.86869,-3.05051 -0.36938,-0.61628 -1.62553,1.11783 -2.08093,0.56208 -0.62036,-0.75708 0.34826,-2.82114 1.30799,-2.62896 0.1036,0.0207 0.0814,0.22961 0.0211,0.31632 z"
                     id="path4377"
                     inkscape:connector-curvature="0" />
                  <path
                     sodipodi:nodetypes="aaaaaaaaaaaaaaa"
                     inkscape:transform-center-y="5.2673608"
                     inkscape:transform-center-x="-1.9291653"
                     inkscape:connector-curvature="0"
                     id="path4379"
                     d="m 171.83532,836.39216 c 0.71873,1.25281 4.28249,0.1655 4.03156,1.58787 -0.13683,0.77573 -2.08386,-0.67549 -2.36234,0.0613 -0.51121,1.35266 3.95199,1.73118 3.17816,2.95274 -0.50302,0.79407 -1.98761,-1.74497 -2.61807,-1.04777 -1.11526,1.23332 3.59629,3.37005 2.30857,4.42204 -0.75799,0.61924 -1.40347,-2.28719 -2.27962,-1.85084 -1.50898,0.75153 1.83602,4.74652 0.17855,5.05417 -1.4099,0.2617 -1.02373,-2.68395 -1.40107,-4.06739 -0.2669,-0.97854 -1.44827,-2.41515 -0.60696,-2.9817 0.41836,-0.28173 0.91851,1.20798 1.26044,0.83719 0.94627,-1.02611 -3.41064,-2.15951 -2.5912,-3.28948 0.42181,-0.58165 1.52167,1.25556 2.02388,0.74172 0.68413,-0.7 -0.10046,-2.84078 -1.07331,-2.73318 -0.10505,0.0116 -0.10113,0.22163 -0.0486,0.31329 z"
                     style="fill:#ff0000;fill-opacity:1;fill-rule:evenodd;stroke:none;stroke-width:0.30000001;stroke-linecap:butt;stroke-linejoin:round;stroke-miterlimit:4;stroke-dasharray:none;stroke-opacity:1" />
                </g>
                <path
                   style="fill:#ff0000;fill-opacity:1;fill-rule:evenodd;stroke:none;stroke-width:0.30000001;stroke-linecap:butt;stroke-linejoin:round;stroke-miterlimit:4;stroke-dasharray:none;stroke-opacity:1;filter:url(#filter4214)"
                   d="m 168.1407,829.3721 c -1.43895,-0.39776 -3.01905,0.60267 -4.22729,1.47956 -1.36284,0.98909 -4.24695,2.81672 -3.06479,4.01593 0.83096,0.84295 1.92643,-2.84969 2.85342,-2.11365 0.90202,0.71621 -0.91963,2.11204 -1.37387,3.17047 -0.60382,1.40698 -3.04003,3.33394 -1.7966,4.2273 1.0335,0.74253 1.76492,-3.19564 2.85343,-2.53638 1.11813,0.6772 -0.71111,2.51957 -0.95114,3.80456 -0.26075,1.39592 -1.87182,3.76702 -0.52842,4.2273 1.24024,0.42493 0.73986,-3.7145 2.00797,-3.38184 1.49967,0.3934 0.0599,3.1003 0.10568,4.65003 0.0573,1.93795 -1.71641,5.60621 0.21137,5.81253 1.84352,0.1973 -0.47621,-5.26852 1.37387,-5.3898 0.75719,-0.0496 0.0983,2.24617 0.84545,2.11364 1.17984,-0.20927 -0.93461,-2.99857 0.10569,-3.5932 0.69809,-0.39902 1.47512,1.65123 2.11364,1.16251 1.06522,-0.81531 -2.02297,-3.10365 -0.95114,-3.91025 0.6808,-0.51233 1.64887,1.90107 2.21933,1.26819 1.4448,-1.60289 -4.99022,-3.47427 -3.77625,-5.25836 0.70984,-1.0432 2.85668,1.88961 3.67057,0.92538 1.6177,-1.91652 -5.05877,-5.39765 -3.03816,-6.88329 1.38545,-1.01864 2.45635,4.35494 3.88362,3.39578 0.98937,-0.66488 -1.85497,-2.41157 -1.16251,-3.38184 0.34789,-0.48746 1.54259,0.54233 1.7966,0 0.7002,-1.49496 -1.57933,-3.36474 -3.17047,-3.80457 z"
                   id="path4381"
                   inkscape:connector-curvature="0"
                   sodipodi:nodetypes="aaaaaaaaaaaaaaaaaaaaaaaaa" />
              </g>
            </g>
            <g
               id="g4677">
              <path
                 sodipodi:nodetypes="ssssssssassss"
                 inkscape:connector-curvature="0"
                 id="path4530"
                 d="m 79.08252,818.16863 c 2.120011,-2.38078 6.09286,1.48203 7.072421,0.80368 1.854366,-1.28416 -0.550582,-4.89879 5.625786,-4.82209 4.166491,0.0517 3.248138,3.7429 4.500628,6.75094 0.973436,2.33785 6.338555,-1.41765 7.554625,0.80368 1.51389,2.76534 -2.74442,5.35284 -4.661362,6.75096 -2.518549,1.83691 4.645182,3.05966 4.500632,8.19758 -0.0637,2.26241 -10.230878,-0.38014 -10.287156,0.32146 -0.151741,1.89169 -3.697475,1.76921 -5.539708,1.31348 -1.832279,-0.45327 -2.321511,-4.50816 -4.26524,-3.72452 -7.315196,2.94923 -6.35358,-1.75137 -7.072422,-4.33991 -0.616634,-2.22049 4.038102,-3.32136 4.01842,-5.62579 -0.01497,-1.75296 -4.665392,-2.81479 -1.446624,-6.42947 z"
                 style="fill:url(#linearGradient4623);fill-opacity:1;fill-rule:evenodd;stroke:none;stroke-width:1px;stroke-linecap:butt;stroke-linejoin:miter;stroke-opacity:1;filter:url(#filter5210)" />
              <path
                 sodipodi:nodetypes="cccccccccccccccccccccc"
                 inkscape:connector-curvature="0"
                 id="path4532"
                 d="m 86.158963,824.1231 c 0.224448,0.52138 0.919014,0.69451 1.439941,0.8234 0.613707,0.11676 0.977305,-0.17777 1.577063,-0.34547 0.283135,-1.22569 1.150711,-2.2185 2.227644,-2.93289 0.279962,1.07271 1.131114,1.94749 1.19176,3.08111 0.05783,0.26028 -0.36368,0.82637 0.01038,0.39568 0.347652,-0.47139 0.964479,-0.45582 1.419289,-0.16548 0.382814,0.27479 2.819707,0.25968 2.995148,0.49242 -0.455879,0.74281 -2.250803,1.66126 -3.00151,2.1833 -0.223794,0.26656 -1.229435,0.61569 -0.455165,0.72281 0.971212,0.29028 1.857163,0.92933 2.287675,1.86565 0.126306,0.29127 0.524967,0.91392 -0.06916,0.55901 -1.203711,-0.38239 -1.060202,1.44983 -2.251573,1.96738 -0.692247,0.78325 -2.121223,0.83551 -2.980795,1.42008 -0.292241,0.3887 -2.142502,0.57304 -2.175155,0.24834 l -1.901741,-2.92647 c -1.066697,-0.9088 -0.197948,-1.61807 -1.507748,-1.78786 -0.205524,-0.0465 -1.013354,-0.53935 -0.454231,-0.66376 0.639213,-0.77254 0.04975,-2.56192 3.435238,-1.06168 -0.04818,-0.43176 -0.818205,-0.397 -1.103366,-0.80291 -0.726956,-0.68018 -0.935133,-2.10346 -0.683692,-3.07272 z"
                 style="fill:url(#linearGradient4607);fill-opacity:1;fill-rule:evenodd;stroke:none;stroke-width:0.3471148px;stroke-linecap:butt;stroke-linejoin:miter;stroke-opacity:1;filter:url(#filter5218)" />
              <g
                 transform="matrix(0.89694951,0,0,1.0778297,-63.192262,-64.195641)"
                 id="g4581">
                <g
                   id="g4547"
                   transform="matrix(0.95726756,-0.28920378,0.28920378,0.95726756,-237.47296,83.928149)"
                   inkscape:transform-center-x="3.1611493"
                   inkscape:transform-center-y="-5.9090155">
                  <path
                     sodipodi:nodetypes="ccccc"
                     inkscape:connector-curvature="0"
                     id="path4543"
                     d="m 174.61301,834.77898 c -4.35938,-0.75545 -4.51888,-4.4494 -3.97828,-11.57324 l 0.78601,0.0715 c 0.28652,3.71661 -2.27453,10.09337 4.32779,10.6968 z"
                     style="fill:#ca4336;fill-opacity:1;fill-rule:evenodd;stroke:#741d15;stroke-width:0.30000001;stroke-linecap:butt;stroke-linejoin:miter;stroke-miterlimit:4;stroke-dasharray:none;stroke-opacity:1" />
                  <ellipse
                     transform="matrix(0.7920834,-0.61041289,0.61041289,0.7920834,0,0)"
                     ry="0.78600591"
                     rx="1.9650147"
                     cy="755.86151"
                     cx="-366.84802"
                     id="path4545"
                     style="color:#000000;clip-rule:nonzero;display:inline;overflow:visible;visibility:visible;opacity:1;isolation:auto;mix-blend-mode:normal;color-interpolation:sRGB;color-interpolation-filters:linearRGB;solid-color:#000000;solid-opacity:1;fill:#e0bb74;fill-opacity:1;fill-rule:nonzero;stroke:#6d553b;stroke-width:0.30000001;stroke-linecap:butt;stroke-linejoin:round;stroke-miterlimit:4;stroke-dasharray:none;stroke-dashoffset:0;stroke-opacity:1;color-rendering:auto;image-rendering:auto;shape-rendering:auto;text-rendering:auto;enable-background:accumulate" />
                </g>
                <g
                   transform="matrix(-0.97084823,-0.23969504,-0.23969504,0.97084823,541.38253,62.034176)"
                   id="g4551"
                   inkscape:transform-center-x="-2.6389034"
                   inkscape:transform-center-y="-5.22982">
                  <path
                     style="fill:#ca4336;fill-opacity:1;fill-rule:evenodd;stroke:#741d15;stroke-width:0.30000001;stroke-linecap:butt;stroke-linejoin:miter;stroke-miterlimit:4;stroke-dasharray:none;stroke-opacity:1"
                     d="m 175.00574,835.72808 c -4.05876,-1.10339 -5.19743,-5.54141 -4.65683,-12.66525 l 0.78601,0.0715 c 0.28652,3.71661 -0.78838,10.14317 3.47055,11.41191 z"
                     id="path4553"
                     inkscape:connector-curvature="0"
                     sodipodi:nodetypes="ccccc" />
                  <ellipse
                     style="color:#000000;clip-rule:nonzero;display:inline;overflow:visible;visibility:visible;opacity:1;isolation:auto;mix-blend-mode:normal;color-interpolation:sRGB;color-interpolation-filters:linearRGB;solid-color:#000000;solid-opacity:1;fill:#e0bb74;fill-opacity:1;fill-rule:nonzero;stroke:#6d553b;stroke-width:0.30000001;stroke-linecap:butt;stroke-linejoin:round;stroke-miterlimit:4;stroke-dasharray:none;stroke-dashoffset:0;stroke-opacity:1;color-rendering:auto;image-rendering:auto;shape-rendering:auto;text-rendering:auto;enable-background:accumulate"
                     id="ellipse4555"
                     cx="584.33508"
                     cy="603.70239"
                     rx="1.9650147"
                     ry="0.78600591"
                     transform="matrix(0.84492843,0.53487937,-0.53487937,0.84492843,0,0)" />
                </g>
                <g
                   transform="matrix(0.99613024,-0.08788941,0.08788941,0.99613024,-74.976521,15.057568)"
                   id="g4557"
                   inkscape:transform-center-x="2.038553"
                   inkscape:transform-center-y="-6.0737168">
                  <path
                     style="fill:#ca4336;fill-opacity:1;fill-rule:evenodd;stroke:#741d15;stroke-width:0.30000001;stroke-linecap:butt;stroke-linejoin:miter;stroke-miterlimit:4;stroke-dasharray:none;stroke-opacity:1"
                     d="m 172.49256,834.13836 c -1.74586,-0.26445 -2.39843,-3.80878 -1.85783,-10.93262 l 0.78601,0.0715 c 0.28652,3.71661 -1.32974,8.66443 1.85783,10.50389 z"
                     id="path4559"
                     inkscape:connector-curvature="0"
                     sodipodi:nodetypes="ccccc" />
                  <ellipse
                     style="color:#000000;clip-rule:nonzero;display:inline;overflow:visible;visibility:visible;opacity:1;isolation:auto;mix-blend-mode:normal;color-interpolation:sRGB;color-interpolation-filters:linearRGB;solid-color:#000000;solid-opacity:1;fill:#e0bb74;fill-opacity:1;fill-rule:nonzero;stroke:#6d553b;stroke-width:0.30000001;stroke-linecap:butt;stroke-linejoin:round;stroke-miterlimit:4;stroke-dasharray:none;stroke-dashoffset:0;stroke-opacity:1;color-rendering:auto;image-rendering:auto;shape-rendering:auto;text-rendering:auto;enable-background:accumulate"
                     id="ellipse4561"
                     cx="-366.84802"
                     cy="755.86151"
                     rx="1.9650147"
                     ry="0.78600591"
                     transform="matrix(0.7920834,-0.61041289,0.61041289,0.7920834,0,0)" />
                </g>
                <g
                   id="g4563"
                   transform="matrix(0.99876581,-0.04966739,0.04966739,0.99876581,-42.131524,7.3119406)"
                   inkscape:transform-center-x="1.5589362"
                   inkscape:transform-center-y="-6.1254137">
                  <path
                     sodipodi:nodetypes="ccccc"
                     inkscape:connector-curvature="0"
                     id="path4565"
                     d="m 172.15702,833.69241 c -1.74586,-0.26445 -2.06289,-3.36283 -1.52229,-10.48667 l 0.78601,0.0715 c -0.0439,8.92284 -1.28754,9.83576 1.53532,8.93843 z"
                     style="fill:#ca4336;fill-opacity:1;fill-rule:evenodd;stroke:#741d15;stroke-width:0.30000001;stroke-linecap:butt;stroke-linejoin:miter;stroke-miterlimit:4;stroke-dasharray:none;stroke-opacity:1" />
                  <ellipse
                     transform="matrix(0.7920834,-0.61041289,0.61041289,0.7920834,0,0)"
                     ry="0.78600591"
                     rx="1.9650147"
                     cy="755.86151"
                     cx="-366.84802"
                     id="ellipse4567"
                     style="color:#000000;clip-rule:nonzero;display:inline;overflow:visible;visibility:visible;opacity:1;isolation:auto;mix-blend-mode:normal;color-interpolation:sRGB;color-interpolation-filters:linearRGB;solid-color:#000000;solid-opacity:1;fill:#e0bb74;fill-opacity:1;fill-rule:nonzero;stroke:#6d553b;stroke-width:0.30000001;stroke-linecap:butt;stroke-linejoin:round;stroke-miterlimit:4;stroke-dasharray:none;stroke-dashoffset:0;stroke-opacity:1;color-rendering:auto;image-rendering:auto;shape-rendering:auto;text-rendering:auto;enable-background:accumulate" />
                </g>
                <g
                   transform="matrix(-0.98405113,-0.17788586,-0.17788586,0.98405113,491.42213,39.286183)"
                   id="g4569"
                   inkscape:transform-center-x="-2.2647214"
                   inkscape:transform-center-y="-5.919061">
                  <path
                     style="fill:#ca4336;fill-opacity:1;fill-rule:evenodd;stroke:#741d15;stroke-width:0.30000001;stroke-linecap:butt;stroke-linejoin:miter;stroke-miterlimit:4;stroke-dasharray:none;stroke-opacity:1"
                     d="m 173.31174,835.23041 c -1.74586,-0.26445 -3.21761,-4.90083 -2.67701,-12.02467 l 0.78601,0.0715 c 0.28652,3.71661 -0.87485,9.76324 2.31272,11.6027 z"
                     id="path4571"
                     inkscape:connector-curvature="0"
                     sodipodi:nodetypes="ccccc" />
                  <ellipse
                     style="color:#000000;clip-rule:nonzero;display:inline;overflow:visible;visibility:visible;opacity:1;isolation:auto;mix-blend-mode:normal;color-interpolation:sRGB;color-interpolation-filters:linearRGB;solid-color:#000000;solid-opacity:1;fill:#e0bb74;fill-opacity:1;fill-rule:nonzero;stroke:#6d553b;stroke-width:0.30000001;stroke-linecap:butt;stroke-linejoin:round;stroke-miterlimit:4;stroke-dasharray:none;stroke-dashoffset:0;stroke-opacity:1;color-rendering:auto;image-rendering:auto;shape-rendering:auto;text-rendering:auto;enable-background:accumulate"
                     id="ellipse4573"
                     cx="-366.84802"
                     cy="755.86151"
                     rx="1.9650147"
                     ry="0.78600591"
                     transform="matrix(0.7920834,-0.61041289,0.61041289,0.7920834,0,0)" />
                </g>
                <g
                   inkscape:transform-center-y="-5.7384607"
                   inkscape:transform-center-x="-3.4382086"
                   transform="matrix(-0.93734308,-0.34840776,-0.34840776,0.93734308,625.87773,110.90291)"
                   id="g4575">
                  <path
                     style="fill:#ca4336;fill-opacity:1;fill-rule:evenodd;stroke:#741d15;stroke-width:0.30000001;stroke-linecap:butt;stroke-linejoin:miter;stroke-miterlimit:4;stroke-dasharray:none;stroke-opacity:1"
                     d="m 175.04613,834.78528 c -4.35938,-0.75545 -4.952,-4.4557 -4.4114,-11.57954 l 0.78601,0.0715 c 0.28652,3.71661 -1.66823,10.279 2.93304,10.15692 z"
                     id="path4577"
                     inkscape:connector-curvature="0"
                     sodipodi:nodetypes="ccccc" />
                  <ellipse
                     style="color:#000000;clip-rule:nonzero;display:inline;overflow:visible;visibility:visible;opacity:1;isolation:auto;mix-blend-mode:normal;color-interpolation:sRGB;color-interpolation-filters:linearRGB;solid-color:#000000;solid-opacity:1;fill:#e0bb74;fill-opacity:1;fill-rule:nonzero;stroke:#6d553b;stroke-width:0.30000001;stroke-linecap:butt;stroke-linejoin:round;stroke-miterlimit:4;stroke-dasharray:none;stroke-dashoffset:0;stroke-opacity:1;color-rendering:auto;image-rendering:auto;shape-rendering:auto;text-rendering:auto;enable-background:accumulate"
                     id="ellipse4579"
                     cx="-366.84802"
                     cy="755.86151"
                     rx="1.9650147"
                     ry="0.78600591"
                     transform="matrix(0.7920834,-0.61041289,0.61041289,0.7920834,0,0)" />
                </g>
              </g>
            </g>
          </g>
        </g>
      </g>
    </g>
  </g>
</svg>
