<?xml version="1.0" encoding="UTF-8" standalone="no"?>
<!-- Created with Inkscape (http://www.inkscape.org/) -->

<svg
   xmlns:dc="http://purl.org/dc/elements/1.1/"
   xmlns:cc="http://creativecommons.org/ns#"
   xmlns:rdf="http://www.w3.org/1999/02/22-rdf-syntax-ns#"
   xmlns:svg="http://www.w3.org/2000/svg"
   xmlns="http://www.w3.org/2000/svg"
   xmlns:sodipodi="http://sodipodi.sourceforge.net/DTD/sodipodi-0.dtd"
   xmlns:inkscape="http://www.inkscape.org/namespaces/inkscape"
   id="svg4136"
   version="1.1"
   inkscape:version="0.91 r13725"
   width="300"
   height="300"
   viewBox="0 0 300 300"
   sodipodi:docname="frezia1.svg">
  <metadata
     id="metadata4142">
    <rdf:RDF>
      <cc:Work
         rdf:about="">
        <dc:format>image/svg+xml</dc:format>
        <dc:type
           rdf:resource="http://purl.org/dc/dcmitype/StillImage" />
        <dc:title />
      </cc:Work>
    </rdf:RDF>
  </metadata>
  <defs
     id="defs4140" />
  <sodipodi:namedview
     pagecolor="#ffffff"
     bordercolor="#666666"
     borderopacity="1"
     objecttolerance="10"
     gridtolerance="10"
     guidetolerance="10"
     inkscape:pageopacity="0"
     inkscape:pageshadow="2"
     inkscape:window-width="1366"
     inkscape:window-height="705"
     id="namedview4138"
     showgrid="false"
     inkscape:zoom="1.2680781"
     inkscape:cx="-0.29246551"
     inkscape:cy="105.8339"
     inkscape:window-x="-8"
     inkscape:window-y="-8"
     inkscape:window-maximized="1"
     inkscape:current-layer="svg4136" />
  <g
     id="g4179">
    <path
       sodipodi:nodetypes="ccsssssccsssasscssssssscsasssscsssssssssssssscsssssssscsssccccscssccsscsccccccc"
       inkscape:connector-curvature="0"
       id="path4248"
       d="m 91.378437,170.47328 -2.365785,-1.87291 c 0,0 -2.968052,12.0163 -5.027293,17.84196 -2.501923,7.07803 -6.370708,13.62226 -8.871692,20.70062 -1.535206,4.34499 -2.877849,8.78179 -3.745826,13.30754 -2.25271,11.74593 -2.7787,23.76309 -3.745826,35.68392 -0.974068,12.0064 -0.95547,24.08404 -2.070062,36.07822 -0.309607,3.33169 -1.281467,9.95601 -1.281467,9.95601 l 9.956011,0.29572 c 0,0 1.219049,-2.37203 1.57719,-3.64725 1.534123,-5.46247 1.860118,-11.20499 2.365785,-16.85622 0.750245,-8.3846 0.418716,-16.83606 0.985744,-25.23504 0.509171,-7.54199 1.111228,-15.0887 2.168636,-22.57353 0.649972,-4.6008 1.369934,-9.2111 2.562933,-13.70183 1.053877,-3.96704 2.34482,-7.89425 4.041549,-11.63178 1.344395,-2.96142 4.830144,-8.47739 4.830144,-8.47739 0,0 4.95926,-6.00361 7.688802,-8.77312 5.09516,-5.16977 9.75746,-11.18088 16.16619,-14.58901 4.3343,-2.30496 9.50294,-2.47558 14.29329,-3.54868 7.52064,-1.68473 14.97464,-4.91834 22.6721,-4.53442 1.68171,0.0839 3.31304,0.74817 4.83015,1.47862 3.98265,1.91755 7.14753,5.22395 10.94175,7.49165 2.82567,1.68882 5.72779,3.28442 8.77312,4.53442 1.94208,0.79716 6.01303,1.87291 6.01303,1.87291 0,0 2.96028,3.43648 4.73157,4.83015 3.12663,2.46007 6.54564,4.66504 10.25174,6.11161 3.87806,1.51369 8.26895,1.26123 12.22322,2.56293 2.84906,0.93788 5.61131,2.19986 8.18167,3.74583 3.33401,2.00527 6.48333,4.37824 9.26599,7.09735 3.67759,3.5936 7.4265,7.39479 9.66029,12.02608 0.45366,0.94056 0.69002,3.0558 0.69002,3.0558 0,0 -1.97444,6.93456 -0.88717,10.15316 0.79651,2.35787 2.62578,4.86693 5.02729,5.52017 1.92548,0.52375 4.61135,-0.11344 5.71732,-1.77434 0.76835,-1.15388 -1.37363,-3.15895 -0.3943,-4.14013 1.74849,-1.75179 4.97397,1.21333 7.39308,0.69002 1.81245,-0.39208 4.24888,-0.99916 4.83014,-2.76008 0.74249,-2.24938 -1.31245,-4.71142 -2.85866,-6.50591 -3.01697,-3.50142 -11.29709,-2.79151 -11.73034,-7.39307 -0.18524,-1.96744 2.71933,-2.90692 4.33727,-4.04155 3.83807,-2.69157 9.76566,-2.61329 12.51894,-6.40734 0.85982,-1.18483 1.31975,-3.0157 0.69002,-4.33727 -1.15884,-2.43198 -4.39945,-3.33378 -6.99878,-4.04155 -3.96311,-1.07911 -8.21886,-0.28996 -12.32179,-0.0986 -4.22289,0.19696 -8.44828,1.98077 -12.61752,1.28146 -3.85666,-0.64688 -10.64603,-4.92871 -10.64603,-4.92871 0,0 6.62765,-5.19348 9.46314,-8.28025 1.87616,-2.04242 3.80349,-4.16824 4.92871,-6.70306 2.53087,-5.70136 5.82451,-12.45351 3.74583,-18.33483 -0.56779,-1.60649 -2.23919,-3.23602 -3.94298,-3.25295 -7.46103,-0.0741 -11.34009,9.75698 -17.54623,13.89898 -1.96968,1.31457 -4.25885,2.10847 -6.21019,3.45011 -3.70939,2.55039 -6.4444,6.4367 -10.35031,8.67454 -0.84767,0.48566 -1.78642,1.0658 -2.76008,0.98574 -1.68578,-0.13861 -4.43584,-2.46436 -4.43584,-2.46436 0,0 11.59168,-8.80197 16.75764,-13.89898 4.57926,-4.51814 8.8145,-9.42827 12.51894,-14.68758 2.05121,-2.91216 4.05079,-5.9389 5.32302,-9.26599 0.79179,-2.07067 1.38004,-6.50591 1.38004,-6.50591 l -12.81466,-4.83015 -8.08311,-2.2672 -7.6888,-3e-5 c 0,0 -1.53477,-2.61662 -2.85865,-3.0558 -1.5844,-0.52561 -5.52017,0.29572 -5.52017,0.29572 0,0 -3.22863,-4.55784 -5.71731,-4.92871 -8.77419,-1.30755 -17.95295,4.59634 -24.34786,10.7446 -2.42588,2.33231 -4.43586,9.06884 -4.43586,9.06884 l -13.30754,6.99878 c 0,0 -2.44053,6.11215 -4.43584,8.67455 -1.31607,1.69011 -2.90862,3.29198 -4.83015,4.23869 -2.73419,1.34709 -8.97026,1.77434 -8.97026,1.77434 0,0 4.12463,-10.03282 5.42159,-15.27902 0.60556,-2.4495 1.08432,-7.49166 1.08432,-7.49166 l -12.7161,-0.49287 -4.83014,-2.07006 -4.14013,13.50469 -8.28024,13.60326 -11.237479,0.7886 z"
       style="fill:#5aa02c;fill-rule:evenodd;stroke:none;stroke-width:1px;stroke-linecap:butt;stroke-linejoin:miter;stroke-opacity:1" />
    <path
       sodipodi:nodetypes="cscscssscssssssscccssasssscssssscssccssasasssssssscsscssssazssc"
       inkscape:connector-curvature="0"
       id="path4242"
       d="m 98.67294,188.01952 c 0,0 6.95888,-6.05605 10.74461,-8.67454 3.94879,-2.73127 12.42037,-7.29451 12.42037,-7.29451 0,0 -1.74507,-1.05203 -1.47862,-1.77434 1.82281,-4.94135 15.57475,-2.6615 15.57475,-2.6615 0,0 1.42825,1.03202 2.26721,1.18289 5.96466,1.07263 12.11459,-3.54305 18.03911,-2.26721 4.36868,0.94079 7.19147,5.59665 11.43463,6.99878 1.75409,0.57963 5.52016,0.49287 5.52016,0.49287 0,0 -1.00204,-3.01874 -1.97149,-4.2387 -1.66024,-2.08926 -6.42865,-2.26282 -6.30876,-4.92872 0.22315,-4.96222 7.86314,-6.35195 12.51895,-8.08309 1.33715,-0.49718 3.40244,-1.74723 4.2387,-0.59145 2.48948,3.44066 -5.21346,7.20717 -5.61874,11.43463 -0.4062,4.23706 0.32708,9.32673 3.35153,12.32179 1.56862,1.55338 4.45337,0.64835 6.40733,1.67577 3.38161,1.77809 8.67454,7.49165 8.67454,7.49165 l 6.80163,2.26721 1.1829,-1.97149 c 0,0 -5.52902,-1.66222 -7.88595,-3.25295 -1.79113,-1.20887 -4.03485,-2.53063 -4.53442,-4.633 -0.35075,-1.47608 0.51226,-3.09277 1.38004,-4.33727 0.85713,-1.22923 2.22129,-3.45557 3.54868,-2.76008 1.0494,0.54984 -1.22889,2.96638 -0.19715,3.54868 4.46848,2.52193 8.84845,-5.30279 12.71609,-8.67455 2.10423,-1.83444 3.9826,-3.94833 5.61874,-6.21018 1.12985,-1.56193 2.85865,-5.0273 2.85865,-5.0273 0,0 -4.13594,1.67661 -5.61873,3.25296 -1.45988,1.552 -1.41703,4.14834 -2.85866,5.71731 -2.94348,3.20348 -8.03552,9.85047 -11.1389,6.80163 -2.82606,-2.77639 4.32905,-6.66576 6.01303,-10.25173 1.02502,-2.18274 1.86284,-4.46642 2.46436,-6.80163 0.31532,-1.22412 0.59145,-3.74583 0.59145,-3.74583 0,0 -5.82904,1.86175 -8.4774,3.35153 -1.18563,0.66695 -2.42808,1.38264 -3.25295,2.46436 -1.60942,2.11058 -2.95723,7.39308 -2.95723,7.39308 l -1.67577,7.98452 c 0,0 -2.23211,2.4275 -3.74582,2.66151 -0.95504,0.14764 -2.34878,-0.0127 -2.76009,-0.88717 -0.37656,-0.8006 0.54907,-1.6949 0.98575,-2.46436 0.77524,-1.36603 2.32987,-2.26684 2.85866,-3.74583 0.95192,-2.66246 -1.08172,-6.00808 0.29572,-8.47739 0.404,-0.72424 1.91005,-0.56632 2.07006,-1.38004 0.54333,-2.76313 -3.87207,-4.31711 -4.73157,-6.99878 -1.16373,-3.63088 1.80329,-8.25159 -0.29572,-11.43463 -0.73655,-1.11694 -2.75093,-0.68244 -3.64725,-1.67576 -1.0929,-1.21117 -0.12426,-3.89114 -1.57719,-4.633 -2.78624,-1.42265 -6.16168,1.38207 -8.97027,2.76008 -3.17547,1.55802 -5.21656,5.36773 -8.67455,6.11161 -0.85051,0.18296 -1.70278,-0.6232 -2.56293,-0.49287 -4.82532,0.73116 -12.91324,6.90021 -12.91324,6.90021 0,0 -2.68502,5.78858 -4.633,8.28024 -1.36015,1.73977 -2.87231,3.51281 -4.83014,4.53443 -2.67954,1.39821 -8.87169,1.87291 -8.87169,1.87291 0,0 1.07209,-3.97967 1.77434,-5.91446 1.10991,-3.05792 2.77947,-5.89639 3.8444,-8.97027 0.91321,-2.63594 3.85876,-5.86372 2.16863,-8.0831 -2.84681,-3.73826 -10.34899,-2.93372 -14.09613,-0.0986 -3.26111,2.46738 -2.05361,7.9194 -3.25296,11.82892 -1.17023,3.8146 -2.37385,8.50019 -3.8444,11.33605 -1.47055,2.83586 -2.36524,4.31765 -4.23869,5.81589 -1.03444,0.82727 -2.69937,0.65202 -3.64726,1.57719 -4.04009,3.94325 -7.09735,15.37763 -7.09735,15.37763 z"
       style="fill:#2d5016;fill-rule:evenodd;stroke:none;stroke-width:1px;stroke-linecap:butt;stroke-linejoin:miter;stroke-opacity:1" />
    <path
       sodipodi:nodetypes="csccssssscssssssssssscscsssscsssccscscsssscsscssssscccscccscccssccssscsccccccc"
       inkscape:connector-curvature="0"
       id="path4206"
       d="m 83.364312,82.527881 c 0,0 0.557621,-8.782528 -0.27881,-11.291822 -0.836431,-2.509293 -0.975836,-2.509293 -0.975836,-2.509293 L 73.884758,58.689591 c 0,0 7.988052,-2.658494 11.849443,-4.321562 3.721838,-1.602964 11.013011,-5.436802 10.873606,-5.436802 -0.139405,0 -0.0092,-0.09385 0,-0.139406 0.497723,-2.470386 1.671438,-4.785581 2.927509,-6.97026 1.885354,-3.279185 4.156934,-6.385937 6.830854,-9.061338 2.18118,-2.182395 7.38848,-5.576208 7.38848,-5.576208 0,0 5.53707,3.924766 7.80669,6.412639 4.35183,4.7703 4.45954,15.287286 10.8736,16.031599 4.70411,0.545883 6.5933,-6.878357 10.45539,-9.61896 3.78072,-2.682866 7.73498,-5.579174 12.26766,-6.552044 2.68674,-0.576668 6.09369,-1.177027 8.22491,0.557621 3.21784,2.619069 -0.10411,9.683918 3.34572,11.988847 1.28439,0.858136 3.06159,-0.692468 4.60038,-0.557621 2.22582,0.195053 4.18879,2.1681 6.41264,1.951673 5.60712,-0.545692 9.30984,-8.498026 14.91635,-7.946096 3.94358,0.388224 6.53367,4.597145 9.20075,7.527881 2.41149,2.649875 4.31335,5.757901 5.99442,8.921933 0.87047,1.63836 2.09108,5.157992 2.09108,5.157992 0,0 11.12608,0.670504 16.31041,2.509294 3.29747,1.169553 9.06134,5.297398 9.06134,5.297398 0,0 -0.0455,-0.13012 0,-0.139405 2.32567,-0.474246 2.33713,4.22175 2.7881,6.552044 0.44154,2.281553 0.83626,4.861109 -0.13941,6.97026 -0.67723,1.46401 -2.2271,2.400625 -3.62453,3.20632 -1.90954,1.100954 -6.27324,2.091078 -6.27324,2.091078 0,0 3.48724,1.282574 5.2974,1.672863 3.06506,0.66086 6.34316,0.193624 9.34015,1.115241 2.80101,0.861349 5.46584,2.279793 7.80669,4.042751 1.89052,1.4238 4.87918,5.157993 4.87918,5.157993 l 0.97584,1.672864 c 0,0 -3.11927,6.69563 -5.15799,9.75836 -2.06714,3.10543 -7.10967,8.64313 -7.10967,8.64313 0,0 3.03336,3.55455 3.76394,5.71561 0.64148,1.8975 0.41822,5.99442 0.41822,5.99442 0,0 -3.34326,4.77268 -5.85502,5.99443 -3.86707,1.88098 -8.55761,1.92258 -12.82528,1.39405 -5.31116,-0.65776 -9.934,-4.02422 -15.05576,-5.57621 -1.92002,-0.5818 -3.86482,-1.14097 -5.85502,-1.39405 -2.3975,-0.30488 -7.24907,-0.13941 -7.24907,-0.13941 0,0 -1.39047,-2.57552 -2.6487,-3.06691 -1.52482,-0.5955 -3.30377,1.00234 -4.87918,0.55762 -2.61224,-0.7374 -6.41264,-5.01859 -6.41264,-5.01859 0,0 -17.36247,4.16666 -23.55948,10.03718 -2.21779,2.10094 -2.13028,5.84267 -4.04275,8.2249 -0.74508,0.9281 -1.80514,1.55944 -2.7881,2.23049 -2.30396,1.57288 -4.73945,2.96399 -7.24908,4.18215 -1.35073,0.65563 -2.8501,2.36567 -4.18215,1.67287 -0.71998,-0.37446 -2.13481,-1.87702 -2.13481,-1.87702 l -5.54649,-4.5088 -4.30755,1.64604 c 1.07154,-6.00065 0.87048,-3.07751 0,-3.34573 -3.95455,-1.21852 -13.09708,-0.22106 -13.09708,-0.22106 l -0.83643,-1.12225 -3.79487,-0.54071 c 0,0 -2.47437,8.43164 -4.15824,13.03644 -1.34207,3.67008 -5.01858,10.5948 -5.01858,10.5948 l -2.27833,1.21381 -0.92799,2.26431 c 0,0 -1.20285,0.75678 -2.15583,0.6591 -2.873842,-0.29456 -6.0727,-0.91887 -8.405143,0.78569 -0.856357,0.62582 -1.533458,1.50663 -1.533458,1.50663 l -2.682524,-1.96858 c 0,0 -3.959611,-2.13732 -5.855018,-3.34572 -4.272535,-2.72391 -8.708565,-5.3191 -12.407063,-8.78253 -2.314911,-2.16778 -5.746022,-4.22677 -5.994424,-7.38848 -0.559342,-7.11939 10.7342,-18.54089 10.7342,-18.54089 0,0 -5.926238,-1.65866 -8.782527,-2.7881 -4.310236,-1.70437 -12.546469,-5.99443 -12.546469,-5.99443 l -8.364312,5.2974 3.345725,-10.45539 8.782528,-17.70446 8.921933,-10.734201 10.45539,-5.855019 z"
       style="fill:#bc5fd3;fill-rule:evenodd;stroke:none;stroke-width:1px;stroke-linecap:butt;stroke-linejoin:miter;stroke-opacity:1" />
    <path
       sodipodi:nodetypes="ssssssssscsssssssssssasssssssssssssscssscssssssssssssssssssssssssssssssssssscssscsssssasssscsss"
       inkscape:connector-curvature="0"
       id="path4212"
       d="m 138.59556,68.350241 c -0.96435,-3.163715 -4.26501,-5.779376 -7.49165,-6.505908 -2.86212,-0.644453 -5.80372,1.158106 -8.4774,2.365785 -4.2858,1.935865 -7.38084,9.215303 -11.82892,7.6888 -1.71019,-0.586906 -0.40059,-3.95028 -1.77434,-5.125867 -2.53661,-2.170705 -6.8726,-3.270042 -9.857438,-1.774338 -2.101993,1.053311 -1.006617,5.352226 -3.15438,6.308759 -1.805949,0.804302 -3.783739,-1.989071 -5.717313,-1.57719 -1.415492,0.301521 -1.915431,2.939402 -3.351529,2.760082 -5.177925,-0.646547 -9.26599,-12.617518 -9.26599,-12.617518 0,0 9.708495,-4.238832 14.391857,-6.703057 2.633175,-1.385486 5.726543,-2.297744 7.688801,-4.534421 2.213692,-2.523267 2.111832,-6.45277 3.942972,-9.26599 2.25739,-3.468074 4.39073,-8.418838 8.4774,-9.068842 3.63095,-0.577519 7.07596,2.70796 9.66029,5.323016 2.93462,2.969506 3.59597,7.568361 5.91446,11.040329 1.55606,2.33022 2.52353,6.386908 5.32301,6.505908 6.31468,0.268424 7.94275,-10.108377 13.20897,-13.603263 3.46737,-2.301093 7.47162,-4.43048 11.63177,-4.53442 2.07748,-0.0519 4.63788,0.331682 5.91447,1.971487 2.18591,2.807849 -1.23252,7.717326 0.78859,10.646031 0.61785,0.8953 1.86963,1.359317 2.95723,1.380041 1.35453,0.02581 2.39617,-1.4596 3.74583,-1.577189 2.35048,-0.204785 4.5645,1.910629 6.9002,1.577189 5.21306,-0.744206 8.54652,-8.04448 13.80041,-7.6888 3.27831,0.221936 5.6109,3.54366 7.88595,5.914462 2.65041,2.761959 4.72762,6.073334 6.50591,9.463139 1.3721,2.615522 1.76121,5.675883 3.15438,8.280247 1.97826,3.698138 5.77244,6.343655 7.2945,10.251734 0.96139,2.468499 0.56141,5.271049 0.98575,7.885949 0.16102,0.992284 -0.29345,2.48023 0.59144,2.957231 2.62105,1.412883 5.42045,-2.522274 8.28025,-3.351529 2.11699,-0.613861 5.09358,0.509379 6.50591,-1.182892 1.05269,-1.261344 0.43855,-3.345425 0,-4.928718 -0.92057,-3.323559 -7.67911,-6.353296 -5.32302,-8.871693 1.96777,-2.103322 6.1141,1.531254 7.6888,3.942975 1.79964,2.756219 0.59145,9.857436 0.59145,9.857436 0,0 -6.63094,3.818049 -10.05459,5.520165 -2.44968,1.217892 -5.67642,1.304798 -7.49165,3.351528 -1.32403,1.492887 -2.37358,3.813979 -1.77434,5.717313 1.44874,4.601548 11.43463,8.871698 11.43463,8.871698 0,0 11.5233,-2.0813 15.7719,-5.717318 1.13963,-0.975315 0.71662,-3.56659 2.16863,-3.942975 3.22993,-0.83725 7.63664,2.093998 8.4774,5.323013 1.00041,3.84216 -2.88728,7.66431 -5.71731,10.44889 -3.01729,2.96883 -10.37252,1.77081 -11.23748,5.91446 -0.85984,4.11911 6.27566,5.96985 7.88595,9.85743 0.45546,1.09958 0.69022,2.39588 0.3943,3.54868 -0.53946,2.1015 -1.83627,4.29302 -3.74583,5.32302 -3.64568,1.96645 -8.80519,2.41627 -12.42037,0.39429 -2.77446,-1.55176 -2.04886,-6.57477 -4.73157,-8.28024 -8.23475,-5.23507 -24.21546,6.036 -29.17801,-2.36579 -0.73298,-1.24097 0.76786,-2.91135 1.77434,-3.94297 3.81785,-3.91321 14.46979,-1.63942 14.78615,-7.09736 0.0855,-1.47431 -2.3023,-2.0541 -3.74582,-2.36578 -2.33469,-0.50411 -4.92767,1.98442 -7.09736,0.98574 -5.53083,-2.54577 -5.58201,-11.04264 -9.85743,-15.377598 -3.09728,-3.140419 -6.6386,-7.577675 -11.04033,-7.294503 -3.81272,0.24528 -5.65385,5.152346 -8.67455,7.491652 -0.82152,0.636206 -2.29436,0.770582 -2.56293,1.774338 -0.3571,1.334661 0.69378,2.884881 1.77434,3.745831 3.579,2.85163 9.23537,1.07417 13.40611,2.95723 3.8575,1.74164 8.33545,3.71786 10.25173,7.49165 0.68433,1.34768 0.78838,3.24484 0,4.53442 -1.57899,2.58281 -5.08734,3.7047 -8.08309,4.14012 -6.02038,0.87504 -11.92603,-2.43701 -17.94054,-3.35153 -3.33629,-0.50729 -8.26693,-4.04514 -10.05458,-1.18289 -1.73816,2.78301 2.86618,6.10532 5.32301,8.28025 1.58454,1.40273 5.65976,0.64463 5.71732,2.76008 0.0592,2.17578 -3.59754,3.64841 -5.71732,3.15438 -2.5744,-0.59999 -2.1512,-5.36232 -4.53442,-6.50591 -5.28506,-2.53603 -11.712,0.61276 -17.54623,1.18289 -5.14332,0.50261 -10.24496,1.36953 -15.37761,1.97149 -6.1699,0.72361 -12.47339,3.34436 -18.53198,1.97149 -1.95662,-0.44337 -3.16821,-2.71558 -5.12586,-3.15438 -1.74204,-0.39047 -3.819232,1.55362 -5.323019,0.59145 -4.901354,-3.13604 -5.520165,-16.5605 -5.520165,-16.5605 0,0 5.265438,4.74963 7.097354,2.95723 1.16013,-1.1351 -0.697233,-3.32025 -1.774338,-4.53442 -2.029186,-2.28741 -5.616772,-2.52977 -8.083098,-4.33727 -2.886249,-2.11525 -7.688801,-7.491652 -7.688801,-7.491652 0,0 4.098767,1.367511 5.520165,0.197149 3.236121,-2.664583 -0.328406,-8.915662 1.971487,-12.42037 1.410293,-2.149085 3.94822,-4.396494 6.505908,-4.140123 2.450982,0.245675 4.358937,2.859101 5.323017,5.125867 1.10596,2.600381 -2.791986,8.041563 0,8.477395 3.40867,0.532097 0.078,-8.296014 3.15438,-9.857437 2.40904,-1.222712 5.20243,1.506306 7.6888,2.562934 4.43663,1.88543 8.17815,5.383505 12.81467,6.703057 3.48553,0.99198 7.90771,2.913679 10.84318,0.788595 1.31687,-0.953331 1.66493,-3.178949 1.18289,-4.73157 -1.11817,-3.60152 -8.4774,-7.491652 -8.4774,-7.491652 0,0 -2.61699,-3.526143 -1.77433,-5.125867 1.61976,-3.074987 7.60188,-0.29768 10.05458,-2.760082 1.7775,-1.78453 2.70589,-4.885204 1.97149,-7.294503 z"
       style="fill:#892ca0;fill-rule:evenodd;stroke:none;stroke-width:1px;stroke-linecap:butt;stroke-linejoin:miter;stroke-opacity:1" />
    <path
       sodipodi:nodetypes="sscssass"
       inkscape:connector-curvature="0"
       id="path4180"
       d="m 94.434242,99.696889 c 1.44033,0.05204 1.722964,-2.788983 3.15438,-2.957231 0.526199,-0.06185 1.380041,0.788595 1.380041,0.788595 0,0 1.399167,9.382237 -1.971487,10.843177 -2.224431,0.96413 -4.466367,-2.16229 -6.111611,-3.94297 -0.65846,-0.71266 -1.155569,-1.61896 -1.380041,-2.56293 -0.562723,-2.366404 -2.080003,-6.439462 0.197149,-7.294508 2.176875,-0.817393 2.407807,5.041913 4.731569,5.125867 z"
       style="fill:#672178;fill-rule:evenodd;stroke:none;stroke-width:1px;stroke-linecap:butt;stroke-linejoin:miter;stroke-opacity:1" />
    <path
       sodipodi:nodetypes="scssssssscssssssssssascssccsssasccccasaascsascsss"
       inkscape:connector-curvature="0"
       id="path4182"
       d="m 111.19188,115.66594 c -1.63609,-1.63787 -0.78859,-6.90021 -0.78859,-6.90021 0,0 -5.97527,4.21295 -5.32302,7.09736 0.68723,3.03908 5.67391,2.62986 8.28025,4.33727 3.24515,2.12589 5.19388,7.10713 9.06884,7.2945 2.51237,0.12148 4.31876,-2.60172 6.30876,-4.14012 1.47239,-1.13825 2.28234,-3.85632 4.14012,-3.74583 2.6968,0.1604 2.79728,5.15289 5.32302,6.11161 5.26587,1.99881 11.12744,-2.32815 16.75764,-2.16863 2.13871,0.0606 6.30876,1.18289 6.30876,1.18289 0,0 -4.36564,-3.86518 -3.94297,-6.30876 0.34286,-1.98217 2.76472,-3.32385 4.73157,-3.74583 7.88547,-1.6918 15.39587,5.95154 23.4607,5.91446 2.85314,-0.0131 6.79968,0.27033 8.28024,-2.16863 0.76936,-1.26738 -0.15638,-3.10831 -0.98574,-4.33727 -1.61119,-2.3875 -4.45088,-3.79197 -7.09736,-4.92872 -5.05658,-2.17197 -11.27193,-0.83504 -16.16619,-3.35153 -1.03397,-0.53164 -2.23563,-1.25016 -2.56293,-2.36578 -1.39552,-4.756628 4.20754,-9.456297 3.74582,-14.391862 -0.24369,-2.604925 -2.70284,-4.562748 -3.35153,-7.097354 -0.81615,-3.188938 -0.70811,-6.567784 -0.59144,-9.857437 0.17854,-5.034318 4.73566,-10.771944 1.97148,-14.983304 -0.52504,-0.799925 -2.76008,-0.788594 -2.76008,-0.788594 0,0 -6.87187,8.04058 -7.6888,13.011816 -1.18711,7.223912 5.41735,14.221848 4.53442,21.489211 -0.25523,2.100779 -2.76008,5.717314 -2.76008,5.717314 l -6.50591,1.971487 c 0,0 6.304,3.445653 6.50591,6.505913 0.25613,3.88216 -3.2228,8.91297 -7.09735,9.26599 -1.85338,0.16886 -2.30666,-3.42654 -4.14013,-3.74583 -1.19027,-0.20728 -2.90229,0.25849 -3.35153,1.38004 -0.72198,1.80247 3.58414,3.81113 2.36579,5.32302 -1.22113,1.51534 -5.71731,-1.1829 -5.71731,-1.1829 l -3.54868,1.77434 12.22322,-19.320573 -5.52017,-8.280247 c 0,0 -1.96729,0.612418 -2.56293,0 -1.65011,-1.696583 1.21799,-4.962141 0.19715,-7.097354 -0.74835,-1.565263 -2.41608,-2.960083 -4.14012,-3.15438 -1.57812,-0.177852 -3.75606,0.493561 -4.33728,1.971488 -1.25065,3.180162 3.2728,6.112254 3.94298,9.463139 0.41242,2.062082 0,6.308759 0,6.308759 0,0 -4.48125,16.930408 -10.84318,15.969048 -2.44599,-0.36962 -2.56245,-4.65515 -2.16864,-7.09736 0.30769,-1.90812 3.75816,-2.84205 3.35153,-4.73156 -1.20221,-5.586395 -14.78615,-8.674549 -14.78615,-8.674549 0,0 5.79792,7.140879 7.09735,11.434629 1.1808,3.90177 3.39344,9.4622 0.3943,12.22322 -2.53078,2.32985 -7.82067,1.25082 -10.25174,-1.18289 z"
       style="fill:#672178;fill-rule:evenodd;stroke:none;stroke-width:1px;stroke-linecap:butt;stroke-linejoin:miter;stroke-opacity:1" />
    <path
       sodipodi:nodetypes="sssscassssssssssss"
       inkscape:connector-curvature="0"
       id="path4184"
       d="m 94.82854,63.421523 c 1.308369,-0.883186 -0.502024,-3.316294 0.197148,-4.73157 1.591325,-3.22119 4.704561,-6.54976 8.280252,-6.900205 3.27798,-0.321267 8.28024,3.351528 8.67454,4.731569 0.3943,1.380041 0.3943,1.182893 0.3943,1.182893 0,0 -2.31109,10.378665 1.38004,11.434626 3.72986,1.067041 7.40709,-5.190991 7.2945,-9.068842 -0.10803,-3.720548 -7.40174,-4.559217 -7.49165,-8.280246 -0.0801,-3.314286 3.60329,-5.772731 6.30876,-7.688801 1.25542,-0.889114 4.12622,-0.05336 4.33727,-1.57719 0.27774,-2.005303 -3.77749,-1.883433 -4.92872,-3.548677 -1.00624,-1.455505 -0.30375,-3.721372 -1.38004,-5.125867 -1.43288,-1.869833 -3.81077,-4.05423 -6.11161,-3.548677 -3.68604,0.809917 -5.24962,5.70726 -6.50591,9.26599 -0.9866,2.794764 1.14152,6.467337 -0.59144,8.871693 -2.74005,3.801622 -9.195319,2.603726 -13.01182,5.323016 -2.351248,1.675285 -6.443052,3.711584 -5.717313,6.505908 0.788977,3.037811 6.270306,4.91039 8.871693,3.15438 z"
       style="fill:#672178;fill-rule:evenodd;stroke:none;stroke-width:1px;stroke-linecap:butt;stroke-linejoin:miter;stroke-opacity:1" />
    <path
       sodipodi:nodetypes="sasassss"
       inkscape:connector-curvature="0"
       id="path4186"
       d="m 148.84729,58.887102 c 2.19578,1.642336 3.33479,6.646835 5.91446,5.717313 2.2394,-0.806914 0.20989,-4.78843 0.7886,-7.097354 1.46266,-5.835668 5.98701,-10.784229 6.70306,-16.757642 0.16592,-1.384143 0.55345,-3.344773 -0.59145,-4.140124 -4.30858,-2.993121 -10.81924,0.754614 -15.3776,3.351529 -4.52498,2.577897 -11.43758,6.287355 -10.64603,11.434626 0.76937,5.003044 9.15549,4.459857 13.20896,7.491652 z"
       style="fill:#672178;fill-rule:evenodd;stroke:none;stroke-width:1px;stroke-linecap:butt;stroke-linejoin:miter;stroke-opacity:1" />
    <path
       sodipodi:nodetypes="ssccscsssscsssass"
       inkscape:connector-curvature="0"
       id="path4190"
       d="m 179.60249,57.901358 c -2.92842,-1.761229 -9.42067,-0.525993 -9.46314,-3.942974 -0.0581,-4.677048 12.81467,-5.717313 12.81467,-5.717313 l 5.32302,-3.942975 c 0,0 5.52016,-1.774339 6.70305,-0.394298 l 1.1829,1.380042 c 0,0 4.24825,3.758355 4.33727,6.308759 0.14901,4.268956 -8.00375,7.039997 -6.50591,11.040329 1.96751,5.254682 14.28011,-0.02771 15.96905,5.323016 1.32931,4.211395 -8.67455,-1.774339 -7.88595,10.646031 0.78859,12.42037 0.78859,12.814668 0.78859,12.814668 0,0 -3.75501,-1.683614 -4.73157,-3.351529 -1.90309,-3.250375 0.39019,-7.815183 -1.18289,-11.237477 -0.67954,-1.478359 -2.07273,-2.542698 -3.35153,-3.548678 -1.24925,-0.982735 -3.22802,-1.064071 -4.14012,-2.365784 -1.10975,-1.583787 -0.0136,-4.045517 -0.98574,-5.717314 -1.9245,-3.309641 -5.59085,-5.321315 -8.8717,-7.294503 z"
       style="fill:#672178;fill-rule:evenodd;stroke:none;stroke-width:1px;stroke-linecap:butt;stroke-linejoin:miter;stroke-opacity:1" />
    <path
       sodipodi:nodetypes="cscsc"
       inkscape:connector-curvature="0"
       id="path4192"
       d="m 90.491268,86.290776 c 0,0 1.284494,3.268214 2.760082,3.745826 1.641146,0.531199 4.928718,-1.57719 4.928718,-1.57719 0,0 -1.063618,-4.031417 -2.760082,-4.534421 -1.747185,-0.518042 -4.928718,2.365785 -4.928718,2.365785 z"
       style="fill:#672178;fill-rule:evenodd;stroke:none;stroke-width:1px;stroke-linecap:butt;stroke-linejoin:miter;stroke-opacity:1" />
    <path
       inkscape:connector-curvature="0"
       id="path4194"
       d="m 104.48883,90.23375 c 0,0 0.59144,9.068842 1.18289,3.351529 0.59145,-5.717314 0.59145,-5.914462 0.59145,-5.914462 z"
       style="fill:#ab37c8;fill-rule:evenodd;stroke:none;stroke-width:1px;stroke-linecap:butt;stroke-linejoin:miter;stroke-opacity:1" />
    <path
       sodipodi:nodetypes="ssassssssss"
       inkscape:connector-curvature="0"
       id="path4196"
       d="m 178.61675,86.685073 c -3.6749,-5.583125 -8.33909,-16.912737 -2.36578,-19.912022 1.53707,-0.771787 2.98172,2.007768 3.74582,3.548677 1.35088,2.724209 -0.0162,6.197918 0.98575,9.068842 0.97326,2.788617 2.59417,5.453227 4.73156,7.491652 3.66307,3.493467 9.05984,4.592145 13.20897,7.491652 7.49037,5.234441 22.9215,8.832186 20.89777,17.743386 -0.28593,1.25906 -2.45507,1.0162 -3.74583,0.98574 -2.41032,-0.0569 -4.79406,-0.99517 -6.90021,-2.16863 -8.87309,-4.94371 -14.7905,-14.022934 -23.0664,-19.912025 -2.35104,-1.672991 -5.90517,-1.927003 -7.49165,-4.337272 z"
       style="fill:#672178;fill-rule:evenodd;stroke:none;stroke-width:1px;stroke-linecap:butt;stroke-linejoin:miter;stroke-opacity:1" />
    <path
       sodipodi:nodetypes="casscacssc"
       inkscape:connector-curvature="0"
       id="path4198"
       d="m 198.13447,124.53763 c 0,0 3.94437,-0.29622 5.91447,-0.19715 3.44372,0.17317 6.81949,1.05002 10.25173,1.38004 4.52118,0.43473 9.11602,0.0852 13.60326,0.7886 3.88945,0.6097 11.43463,2.95723 11.43463,2.95723 0,0 -6.31568,-7.90213 -5.71731,-12.42037 0.20216,-1.52645 2.95723,-3.54868 2.95723,-3.54868 0,0 -9.81288,2.12353 -14.78616,2.76008 -3.72465,0.47673 -7.65734,-0.34405 -11.23748,0.7886 -4.60975,1.45838 -12.42037,7.49165 -12.42037,7.49165 z"
       style="fill:#672178;fill-rule:evenodd;stroke:none;stroke-width:1px;stroke-linecap:butt;stroke-linejoin:miter;stroke-opacity:1" />
    <path
       sodipodi:nodetypes="scss"
       inkscape:connector-curvature="0"
       id="path4200"
       d="m 218.90274,105.38038 c -1.92894,-1.43891 -4.14012,-5.914465 -4.14012,-5.914465 0,0 13.37943,4.149705 11.23748,8.280245 -1.148,2.2138 -5.09848,-0.8747 -7.09736,-2.36578 z"
       style="fill:#672178;fill-rule:evenodd;stroke:none;stroke-width:1px;stroke-linecap:butt;stroke-linejoin:miter;stroke-opacity:1" />
    <path
       sodipodi:nodetypes="scss"
       inkscape:connector-curvature="0"
       id="path4202"
       d="m 236.97277,133.01502 c 7.09736,-4.14012 7.29451,-4.14012 7.29451,-4.14012 0,0 -0.71797,3.69618 -2.16864,4.53442 -1.48377,0.85737 -7.54086,1.01444 -5.12587,-0.3943 z"
       style="fill:#672178;fill-rule:evenodd;stroke:none;stroke-width:1px;stroke-linecap:butt;stroke-linejoin:miter;stroke-opacity:1" />
    <path
       sodipodi:nodetypes="csscsc"
       inkscape:connector-curvature="0"
       id="path4204"
       d="m 111.19188,127.88916 c 0,0 -19.714869,-17.15194 -14.786151,-10.25174 0,0 2.683039,5.18371 4.928721,6.90021 3.00656,2.29808 10.64603,3.94297 10.64603,3.94297 0,0 -0.60273,0.18587 -0.7886,0 -0.1394,-0.1394 0,-0.59144 0,-0.59144 z"
       style="fill:#672178;fill-rule:evenodd;stroke:none;stroke-width:1px;stroke-linecap:butt;stroke-linejoin:miter;stroke-opacity:1" />
    <path
       sodipodi:nodetypes="aacsscsasscsssssssssssa"
       inkscape:connector-curvature="0"
       id="path4238"
       d="m 67.819163,152.92705 c -1.698882,-0.63267 -3.547404,-2.14101 -3.745825,-3.94298 -0.79687,-7.23684 11.237477,-18.72913 11.237477,-18.72913 0,0 -6.81822,-1.49314 -10.054585,-2.76008 -3.722306,-1.45717 -6.650405,-5.63793 -10.646032,-5.52016 -3.593664,0.10592 -9.26599,5.52016 -9.26599,5.52016 0,0 2.334684,-7.99644 3.942975,-11.82892 2.456531,-5.85379 5.245581,-11.61217 8.674544,-16.954794 2.577778,-4.016403 5.193107,-8.197013 8.871693,-11.237478 2.96789,-2.453053 6.511165,-4.40979 10.251734,-5.323016 2.106758,-0.514346 6.505908,0 6.505908,0 0,0 3.644894,5.649301 3.942975,8.871693 0.130669,1.412588 -0.02407,3.097209 -0.985744,4.140124 -2.014558,2.184753 -7.768285,-0.125875 -8.477396,2.760082 -0.986893,4.016479 6.210795,5.549639 8.674545,8.871689 2.27758,3.07102 5.989807,6.26012 5.520164,10.05459 -0.154218,1.246 -2.214139,1.554 -2.562933,2.76008 -0.297198,1.02767 1.117992,2.22315 0.591446,3.15438 -1.48402,2.62457 -8.623402,0.14284 -8.477396,3.15438 0.161328,3.32759 8.074212,-0.36678 9.660288,2.56293 3.690353,6.81662 -1.670575,16.7462 -7.294503,22.08066 -1.087254,1.03129 -2.863502,0.91144 -4.337272,1.18289 -3.961399,0.72965 -8.251295,2.58865 -12.026073,1.1829 z"
       style="fill:#cd87de;fill-rule:evenodd;stroke:none;stroke-width:1px;stroke-linecap:butt;stroke-linejoin:miter;stroke-opacity:1" />
    <path
       sodipodi:nodetypes="sscssscsscs"
       inkscape:connector-curvature="0"
       id="path4208"
       d="m 59.944238,109.29368 c -0.466735,-4.91163 4.229288,-9.03563 7.388476,-12.825279 3.863189,-4.634145 13.801115,-11.710037 13.801115,-11.710037 0,0 -8.764314,1.323668 -12.407063,3.624535 -3.895621,2.460588 -6.709551,6.439864 -9.200744,10.315986 -2.497393,3.885765 -3.699062,8.465395 -5.576208,12.685875 -1.656646,3.72472 -5.018587,11.15241 -5.018587,11.15241 0,0 4.588139,-2.84307 7.109665,-2.64869 3.982574,0.307 6.581242,4.88233 10.455391,5.85501 2.434175,0.61115 7.527881,-0.1394 7.527881,-0.1394 0,0 -13.400474,-9.16028 -14.079926,-16.31041 z"
       style="fill:#bc5fd3;fill-rule:evenodd;stroke:none;stroke-width:1px;stroke-linecap:butt;stroke-linejoin:miter;stroke-opacity:1" />
    <path
       sodipodi:nodetypes="csscssc"
       inkscape:connector-curvature="0"
       id="path4210"
       d="m 78.268046,157.85576 c 0,0 5.479983,-2.12983 8.280247,-1.77433 3.644397,0.46267 6.191669,4.68821 9.857436,4.92871 3.815781,0.25034 10.843181,-3.74582 10.843181,-3.74582 0,0 -7.22754,7.46308 -12.026073,8.47739 -3.278442,0.69299 -6.834433,-0.52584 -9.857436,-1.97148 -2.778231,-1.32859 -7.097355,-5.91447 -7.097355,-5.91447 z"
       style="fill:#cd87de;fill-rule:evenodd;stroke:none;stroke-width:1px;stroke-linecap:butt;stroke-linejoin:miter;stroke-opacity:1" />
    <path
       inkscape:connector-curvature="0"
       id="path4214"
       d="m 101.5316,101.86553 6.5059,-5.717318 9.85744,11.040328 -2.36578,5.71731 -3.74583,-8.87169 -7.09735,5.32302 -4.928722,-4.14013 z"
       style="fill:#ab37c8;fill-rule:evenodd;stroke:none;stroke-width:1px;stroke-linecap:butt;stroke-linejoin:miter;stroke-opacity:1" />
    <path
       sodipodi:nodetypes="sssacssss"
       inkscape:connector-curvature="0"
       id="path4216"
       d="m 151.60737,84.516437 c -1.14524,-2.813775 -5.34244,-4.082662 -5.71731,-7.097354 -0.3302,-2.655419 0.81246,-6.449867 3.35153,-7.294503 3.26465,-1.086005 7.08994,2.114236 9.06884,4.928718 0.49716,0.707077 0.3943,2.562933 0.3943,2.562933 0,0 1.51717,3.874964 1.57719,5.914462 0.0868,2.950107 0.41953,6.700308 -1.77434,8.674545 -1.5214,1.369091 -4.53267,1.893763 -6.11161,0.591446 -2.13889,-1.764172 0.25661,-5.712234 -0.7886,-8.280247 z"
       style="fill:#ab37c8;fill-rule:evenodd;stroke:none;stroke-width:1px;stroke-linecap:butt;stroke-linejoin:miter;stroke-opacity:1" />
    <path
       sodipodi:nodetypes="cascsssc"
       inkscape:connector-curvature="0"
       id="path4218"
       d="m 173.09659,74.264703 c 0,0 -2.25871,-5.280477 -2.76009,-8.083098 -0.46305,-2.588379 -2.2526,-6.246057 -0.19715,-7.885949 3.12726,-2.495011 11.63178,2.957231 11.63178,2.957231 0,0 -0.58418,1.851181 -1.38004,2.168636 -1.76171,0.702718 -3.95755,-2.455053 -5.52017,-1.380041 -3.59949,2.47629 2.78339,12.740359 -1.57719,13.011816 -0.27043,0.01684 -0.19714,-0.788595 -0.19714,-0.788595 z"
       style="fill:#ab37c8;fill-rule:evenodd;stroke:none;stroke-width:1px;stroke-linecap:butt;stroke-linejoin:miter;stroke-opacity:1" />
    <path
       sodipodi:nodetypes="scss"
       inkscape:connector-curvature="0"
       id="path4220"
       d="m 158.70473,56.915615 c 2.63239,2.566681 9.66029,-5.323016 9.66029,-5.323016 0,0 -4.93482,-1.194801 -6.90021,0 -1.70786,1.038241 -4.19111,3.927707 -2.76008,5.323016 z"
       style="fill:#ab37c8;fill-rule:evenodd;stroke:none;stroke-width:1px;stroke-linecap:butt;stroke-linejoin:miter;stroke-opacity:1" />
    <path
       sodipodi:nodetypes="scss"
       inkscape:connector-curvature="0"
       id="path4222"
       d="m 191.62857,76.827637 c -3.05659,2.603589 4.33727,11.237477 4.33727,11.237477 0,0 1.74586,-5.9923 0.3943,-8.477395 -0.87238,-1.604036 -3.34156,-3.944083 -4.73157,-2.760082 z"
       style="fill:#ab37c8;fill-rule:evenodd;stroke:none;stroke-width:1px;stroke-linecap:butt;stroke-linejoin:miter;stroke-opacity:1" />
    <path
       sodipodi:nodetypes="scacs"
       inkscape:connector-curvature="0"
       id="path4224"
       d="m 128.34382,92.599535 c -2.03661,-0.95132 -5.32301,-4.140123 -5.32301,-4.140123 0,0 5.96551,-0.717922 8.47739,0.591446 1.94762,1.015233 4.14013,5.125867 4.14013,5.125867 0,0 -5.04059,-0.524362 -7.29451,-1.57719 z"
       style="fill:#cd87de;fill-rule:evenodd;stroke:none;stroke-width:1px;stroke-linecap:butt;stroke-linejoin:miter;stroke-opacity:1" />
    <path
       sodipodi:nodetypes="sscs"
       inkscape:connector-curvature="0"
       id="path4226"
       d="m 116.5149,87.079371 c 0.52415,1.283377 3.20749,0.63137 4.14012,-0.394298 0.66316,-0.72932 0,-2.957231 0,-2.957231 0,0 -4.81145,1.707779 -4.14012,3.351529 z"
       style="fill:#cd87de;fill-rule:evenodd;stroke:none;stroke-width:1px;stroke-linecap:butt;stroke-linejoin:miter;stroke-opacity:1" />
    <path
       sodipodi:nodetypes="sssssss"
       inkscape:connector-curvature="0"
       id="path4228"
       d="m 108.0375,83.333545 c 3.15494,2.479151 6.64368,-4.553274 10.25174,-6.30876 2.89797,-1.409992 8.28689,-0.225053 9.06884,-3.351528 0.57601,-2.303047 -2.36126,-5.190926 -4.73157,-5.323016 -2.64826,-0.147579 -3.69545,3.870075 -5.91446,5.323016 -1.99295,1.304924 -4.91992,1.179783 -6.50591,2.957231 -1.5635,1.752244 -4.01514,5.252081 -2.16864,6.703057 z"
       style="fill:#cd87de;fill-rule:evenodd;stroke:none;stroke-width:1px;stroke-linecap:butt;stroke-linejoin:miter;stroke-opacity:1" />
    <path
       inkscape:transform-center-y="2.9598154"
       inkscape:transform-center-x="-1.2219942"
       sodipodi:nodetypes="sassssss"
       inkscape:connector-curvature="0"
       id="path4230"
       d="m 93.194372,72.160661 c 1.953546,-0.259583 3.998321,2.567123 5.702931,1.56968 1.390027,-0.813365 -0.163272,-3.866714 1.209717,-4.709038 1.76727,-1.084217 5.11967,-0.469614 6.04856,1.39527 1.41329,2.837431 -1.21676,6.909793 -3.80195,8.72044 -3.318178,2.324021 -8.862921,3.139232 -12.097132,0.697635 -1.421006,-1.072757 -1.911777,-3.587443 -1.209713,-5.232264 0.633217,-1.483522 2.560723,-2.230864 4.147587,-2.441723 z"
       style="fill:#cd87de;fill-rule:evenodd;stroke:none;stroke-width:1px;stroke-linecap:butt;stroke-linejoin:miter;stroke-opacity:1" />
    <path
       sodipodi:nodetypes="scsss"
       inkscape:connector-curvature="0"
       id="path4232"
       d="m 227.91546,109.07471 c 1.9474,-5.98625 20.8589,-3.68903 20.8589,-3.68903 0,0 0.18535,1.85697 -0.46699,2.45935 -4.17209,3.85266 -11.90862,4.83157 -17.74563,3.41578 -1.16758,-0.28319 -2.97887,-1.16373 -2.64628,-2.1861 z"
       style="fill:#ab37c8;fill-rule:evenodd;stroke:none;stroke-width:1px;stroke-linecap:butt;stroke-linejoin:miter;stroke-opacity:1" />
    <path
       sodipodi:nodetypes="sccss"
       inkscape:connector-curvature="0"
       id="path4234"
       d="m 163.042,120.20036 c -0.99455,1.58124 3.54868,4.33727 3.54868,4.33727 l 6.30876,0 c 0,0 -2.0569,-2.1132 -3.35153,-2.76008 -1.99614,-0.9974 -5.31785,-3.46608 -6.50591,-1.57719 z"
       style="fill:#ab37c8;fill-rule:evenodd;stroke:none;stroke-width:1px;stroke-linecap:butt;stroke-linejoin:miter;stroke-opacity:1" />
    <path
       sodipodi:nodetypes="ssascscss"
       inkscape:connector-curvature="0"
       id="path4236"
       d="m 91.67416,138.92949 c 1.245745,-2.41873 2.359235,-5.61155 4.928718,-6.50591 1.98702,-0.69162 4.899802,-0.14272 6.111612,1.57719 0.41807,0.59337 -0.18953,1.44281 -0.19715,2.16863 -0.0595,5.66503 1.18289,16.9548 1.18289,16.9548 0,0 -5.533015,-2.42287 -8.280244,-1.77434 -2.047663,0.48339 -4.928718,3.94297 -4.928718,3.94297 0,0 -1.835123,-4.52609 -1.774339,-6.9002 0.08459,-3.30373 1.444024,-6.52511 2.957231,-9.46314 z"
       style="fill:#cd87de;fill-rule:evenodd;stroke:none;stroke-width:1px;stroke-linecap:butt;stroke-linejoin:miter;stroke-opacity:1" />
    <path
       sodipodi:nodetypes="sssssssscsszsccssscssssss"
       inkscape:connector-curvature="0"
       id="path4240"
       d="m 92.462755,167.91035 c 2.227709,-1.51698 5.7478,-1.54263 8.083095,-0.19715 1.36333,0.78548 2.33283,2.56807 2.26721,4.14012 -0.10679,2.5586 -3.271696,4.03611 -4.238694,6.40734 -0.985527,2.41667 -0.473461,5.28023 -1.478616,7.6888 -0.828377,1.98497 -1.514999,5.04048 -3.647251,5.32301 -1.755946,0.23267 -2.364271,-4.0195 -4.041549,-3.4501 -1.495099,0.50755 -1.004772,3.05421 -0.985744,4.633 0.02564,2.12777 1.478615,6.21018 1.478615,6.21018 0,0 -6.632318,15.39069 -8.773118,23.4607 -1.579013,5.95228 -2.346097,12.1085 -2.957231,18.23626 -0.943062,9.45596 -0.472636,19.13661 -1.084318,28.48799 -0.611682,9.35138 -1.842963,18.38906 -2.562934,27.60082 -0.161624,2.06793 -0.394297,6.21019 -0.394297,6.21019 l -7.195929,-0.49287 c 0,0 1.959029,-12.45691 2.562934,-18.72913 0.731738,-7.5999 0.826172,-15.2478 1.281466,-22.86926 0.649865,-10.87851 0.742268,-21.8114 2.070062,-32.62811 0.333727,-2.71867 1.478616,-8.0831 1.478616,-8.0831 0,0 1.733959,-1.86436 2.365784,-2.95723 3.108944,-5.37756 6.240469,-11.16291 6.801632,-17.34909 0.124002,-1.36698 -0.93995,-2.67733 -0.788595,-4.04155 0.486717,-4.38697 4.193007,-7.85785 5.323015,-12.12464 0.566678,-2.13971 0.138521,-4.46082 0.690021,-6.60449 0.799793,-3.10879 1.09256,-7.06492 3.745826,-8.87169 z"
       style="fill:#2d5016;fill-rule:evenodd;stroke:none;stroke-width:1px;stroke-linecap:butt;stroke-linejoin:miter;stroke-opacity:1" />
    <path
       sodipodi:nodetypes="ssssssss"
       inkscape:connector-curvature="0"
       id="path4252"
       d="m 103.50308,167.02318 c -0.0832,1.29179 0.51643,2.80678 1.57719,3.54868 1.1875,0.83054 3.019,0.89746 4.33728,0.29572 2.13425,-0.97419 3.18419,-3.523 4.23869,-5.61874 3.66387,-7.28165 10.40283,-16.10013 6.90021,-23.4607 -0.65816,-1.38308 -2.8427,-2.40463 -4.2387,-1.77434 -4.29949,1.94121 -2.54016,9.13098 -4.53442,13.40612 -2.2441,4.81072 -7.93925,8.30583 -8.28025,13.60326 z"
       style="fill:#c6e9af;fill-rule:evenodd;stroke:none;stroke-width:1px;stroke-linecap:butt;stroke-linejoin:miter;stroke-opacity:1" />
    <path
       sodipodi:nodetypes="csscssc"
       inkscape:connector-curvature="0"
       id="path4244"
       d="m 109.91042,166.53031 c 0,0 1.12694,-9.08905 2.56293,-13.40612 0.44991,-1.35259 0.98249,-2.73127 1.87291,-3.8444 1.0514,-1.31437 3.94298,-3.15438 3.94298,-3.15438 0,0 -2.52728,10.52537 -4.43585,15.57475 -0.56641,1.49851 -0.83598,3.31582 -2.07006,4.33728 -0.4973,0.41162 -1.87291,0.49287 -1.87291,0.49287 z"
       style="fill:#e3f4d7;fill-rule:evenodd;stroke:none;stroke-width:1px;stroke-linecap:butt;stroke-linejoin:miter;stroke-opacity:1" />
    <path
       sodipodi:nodetypes="csscssccsc"
       inkscape:connector-curvature="0"
       id="path4254"
       d="m 133.76541,145.33682 c 0,0 2.99072,-2.31751 4.633,-1.97149 2.11546,0.44573 3.76067,2.94156 5.32302,4.43585 0.87569,0.83755 1.8729,2.66151 1.8729,2.66151 0,0 -2.76567,6.08783 -4.83014,8.67454 -1.34983,1.69128 -2.89353,3.37186 -4.83014,4.33727 -2.75672,1.37423 -9.06884,1.77434 -9.06884,1.77434 l 5.52016,-15.18045 c 0,0 0.77173,-4.71052 2.36578,-5.32301 0.15336,-0.0589 -0.98574,0.59144 -0.98574,0.59144 z"
       style="fill:#c6e9af;fill-rule:evenodd;stroke:none;stroke-width:1px;stroke-linecap:butt;stroke-linejoin:miter;stroke-opacity:1" />
    <path
       sodipodi:nodetypes="ssssssscss"
       inkscape:connector-curvature="0"
       id="path4246"
       d="m 135.7369,149.2798 c 0.46919,-1.61544 0.29572,-4.83012 1.08432,-4.92872 0,0 0.53184,-0.16384 0.78859,-0.0986 2.07685,0.5277 4.29889,1.81318 5.22445,3.74583 0.51172,1.0685 0.18496,2.42727 -0.19715,3.54868 -1.10526,3.24373 -3.36158,6.08578 -5.81589,8.47739 -1.03785,1.01134 -2.30498,1.81967 -3.64725,2.36579 -1.24153,0.50513 -3.94298,0.78859 -3.94298,0.78859 0,0 3.49166,-6.27652 4.92872,-9.56171 0.61653,-1.40942 1.14812,-2.85993 1.57719,-4.33725 z"
       style="fill:#e3f4d7;fill-rule:evenodd;stroke:none;stroke-width:1px;stroke-linecap:butt;stroke-linejoin:miter;stroke-opacity:1" />
    <path
       sodipodi:nodetypes="cscc"
       inkscape:connector-curvature="0"
       id="path4250"
       d="m 102.51734,174.51483 c 0,0 -2.0341,2.30506 -2.26721,3.74583 -0.1184,0.73179 0.49287,2.16863 0.49287,2.16863 z"
       style="fill:#8dd35f;fill-rule:evenodd;stroke:none;stroke-width:1px;stroke-linecap:butt;stroke-linejoin:miter;stroke-opacity:1" />
    <path
       sodipodi:nodetypes="ssssss"
       inkscape:connector-curvature="0"
       id="path4258"
       d="m 171.6075,167.52755 c 1.20138,0.17572 2.46748,-0.62031 3.33355,-1.47688 2.04302,-2.02062 5.26189,-5.50588 3.60023,-7.85434 -0.51838,-0.73262 -1.8283,-0.0417 -2.66684,0.26852 -3.11877,1.15407 -8.03724,2.36454 -8.20051,5.70614 -0.0845,1.72848 2.23272,3.10778 3.93357,3.35656 z"
       style="fill:#c6e9af;fill-rule:evenodd;stroke:none;stroke-width:1px;stroke-linecap:butt;stroke-linejoin:miter;stroke-opacity:1" />
    <path
       sodipodi:nodetypes="ccsc"
       inkscape:connector-curvature="0"
       id="path4260"
       d="m 161.95768,141.09812 13.50469,-8.47739 c 0,0 -6.64805,0.54696 -9.26599,2.36578 -2.03605,1.41455 -4.2387,6.11161 -4.2387,6.11161 z"
       style="fill:#c6e9af;fill-rule:evenodd;stroke:none;stroke-width:1px;stroke-linecap:butt;stroke-linejoin:miter;stroke-opacity:1" />
    <path
       sodipodi:nodetypes="ssssss"
       inkscape:connector-curvature="0"
       id="path4262"
       d="m 190.47608,139.09942 c 1.12725,-2.35872 2.71133,-5.49151 5.36241,-5.79821 4.1695,-0.48236 9.79684,2.89012 10.38967,6.94152 0.6781,4.63411 -4.51677,9.56928 -9.13285,10.86143 -2.69098,0.75327 -6.48732,-0.29235 -7.95984,-2.61328 -1.70553,-2.68818 -0.0286,-6.52639 1.34061,-9.39146 z"
       style="fill:#c6e9af;fill-rule:evenodd;stroke:none;stroke-width:1px;stroke-linecap:butt;stroke-linejoin:miter;stroke-opacity:1" />
    <path
       sodipodi:nodetypes="cssscc"
       inkscape:connector-curvature="0"
       id="path4264"
       d="m 218.83509,134.59221 c 0,0 -13.18864,9.49622 -9.66029,13.89899 1.57592,1.96647 4.47889,-2.88529 6.99878,-2.85866 2.14851,0.0227 3.85929,3.18971 5.91447,2.56294 3.84476,-1.17255 6.5059,-10.15316 6.5059,-10.15316 z"
       style="fill:#2d5016;fill-rule:evenodd;stroke:none;stroke-width:1px;stroke-linecap:butt;stroke-linejoin:miter;stroke-opacity:1" />
    <path
       sodipodi:nodetypes="sscs"
       inkscape:connector-curvature="0"
       id="path4266"
       d="m 205.7247,185.65374 c 0.86635,2.5893 5.91775,1.92062 8.18167,0.39429 2.97265,-2.00416 3.54868,-10.15316 3.54868,-10.15316 0,0 -13.34423,4.93537 -11.73035,9.75887 z"
       style="fill:#2d5016;fill-rule:evenodd;stroke:none;stroke-width:1px;stroke-linecap:butt;stroke-linejoin:miter;stroke-opacity:1" />
    <path
       inkscape:connector-curvature="0"
       id="path4268"
       d="m 217.35648,183.68225 -0.29573,6.11161 4.14013,-4.83014 z"
       style="fill:#5aa02c;fill-rule:evenodd;stroke:none;stroke-width:1px;stroke-linecap:butt;stroke-linejoin:miter;stroke-opacity:1" />
    <path
       sodipodi:nodetypes="ssssccscs"
       inkscape:connector-curvature="0"
       id="path4270"
       d="m 223.76381,172.14905 c 0.12249,2.12897 4.35176,1.65021 5.32302,3.54868 0.80869,1.5807 0.61363,3.74338 -0.19715,5.32301 -3.20828,6.25068 -17.32924,5.91932 -16.65907,12.91324 0.29855,3.11571 8.37882,4.2387 8.37882,4.2387 l -1.57719,-5.32302 c 0,0 10.30495,-6.78275 13.30754,-11.92749 3.3917,-5.81144 4.33727,-19.71488 4.33727,-19.71488 0,0 -13.23729,5.30923 -12.91324,10.94176 z"
       style="fill:#2d5016;fill-rule:evenodd;stroke:none;stroke-width:1px;stroke-linecap:butt;stroke-linejoin:miter;stroke-opacity:1" />
    <path
       sodipodi:nodetypes="csscsc"
       inkscape:connector-curvature="0"
       id="path4272"
       d="m 232.6355,203.69284 c 0,0 8.21042,-0.19648 10.74461,2.46436 1.28909,1.35352 -0.64486,4.60644 0.98574,5.52017 5.35496,3.00074 17.15194,-6.70306 17.15194,-6.70306 0,0 -8.5997,-3.17759 -13.11039,-3.4501 -5.29711,-0.32002 -15.7719,2.16863 -15.7719,2.16863 z"
       style="fill:#2d5016;fill-rule:evenodd;stroke:none;stroke-width:1px;stroke-linecap:butt;stroke-linejoin:miter;stroke-opacity:1" />
    <path
       sodipodi:nodetypes="cscsc"
       inkscape:connector-curvature="0"
       id="path4274"
       d="m 243.28153,227.25212 c 0,0 -1.77433,1.08432 -0.29572,5.12587 1.47862,4.04154 1.47862,4.14012 1.47862,4.14012 0,0 1.30976,-4.03156 0.88717,-6.01304 -0.26808,-1.25698 -2.07007,-3.25295 -2.07007,-3.25295 z"
       style="fill:#2d5016;fill-rule:evenodd;stroke:none;stroke-width:1px;stroke-linecap:butt;stroke-linejoin:miter;stroke-opacity:1" />
    <path
       sodipodi:nodetypes="csscscsc"
       inkscape:connector-curvature="0"
       id="path4276"
       d="m 236.8742,212.56454 c 0,0 5.05884,7.19838 7.78738,10.64603 1.85123,2.33912 3.19637,5.37452 5.81588,6.80163 2.1546,1.17383 7.29451,0.98574 7.29451,0.98574 0,0 -2.39818,-4.12103 -4.04155,-5.81588 -3.4173,-3.52435 -11.82893,-8.77312 -11.82893,-8.77312 0,0 1.20109,-2.98512 0.29573,-3.94298 -1.21902,-1.28971 -5.32302,0.0986 -5.32302,0.0986 z"
       style="fill:#2d5016;fill-rule:evenodd;stroke:none;stroke-width:1px;stroke-linecap:butt;stroke-linejoin:miter;stroke-opacity:1" />
  </g>
</svg>
